<svg xmlns="http://www.w3.org/2000/svg" fill="none" viewBox="0 0 53 52"><g fill="#FFFDF5" clip-path="url(#a)"><path d="M.3 0h52v52H.3z" opacity=".1"/><path fill-rule="evenodd" d="M38 26a12 12 0 1 1-24 0 12 12 0 0 1 24 0Zm-15.4 4.8h-2.3l-1-.1a.6.6 0 0 1-.2-.5l.4-.8 5.7-10.1.6-.8h.5l.5.8 1.2 2 .5 1v.8l-.5 1-3 5.3-.6.9-.7.4h-1.1Zm5.9 0h3.3l1-.1.2-.5-.4-.8-1.7-2.9c-.2-.4-.3-.6-.5-.7H30c-.2.1-.3.3-.5.7l-1.7 2.9-.4.8c0 .2.1.4.3.5h.9Z" clip-rule="evenodd"/></g><defs><clipPath id="a"><path fill="#fff" d="M.3 0h52v52H.3z"/></clipPath></defs></svg>