<svg xmlns="http://www.w3.org/2000/svg" fill="none" viewBox="0 0 53 52"><g fill="#FFFDF5" clip-path="url(#a)"><path d="M.6 0h52v52H.6z" opacity=".1"/><g clip-path="url(#b)"><path d="M19.5 25.4c0 1.1.8 2.1 2 2.2 1.2 0 2.2-1 2.2-2.1a2 2 0 0 0-4.2-.1Zm-7.8-.6c-.4 0-.7.3-.7.7 0 .4.3.7.6.7.4 0 .7-.3.7-.7 0-.3-.2-.6-.6-.7Zm7.7-11.7c.3-.1.4-.6.3-.9a.7.7 0 0 0-1-.3c-.3.2-.4.6-.2 1 .1.3.5.4.9.2Zm2.1 3.8c.5-.3.7-1 .4-1.5a1 1 0 0 0-1.4-.4 1 1 0 0 0-.4 1.4c.2.5.9.7 1.4.5Zm-7.1 2.5c.4.3.9.2 1.1-.2.3-.4.2-1-.2-1.2a.9.9 0 0 0-1.2.2c-.3.4-.1 1 .3 1.2Zm1.2 5.1a1 1 0 0 0-1 1c-.1.5.3 1 .9 1 .6 0 1-.3 1.1-1 0-.5-.4-1-1-1Zm-1.1 7c-.5.3-.6.8-.4 1.2.2.4.7.6 1.1.4.5-.2.6-.7.4-1.2a.9.9 0 0 0-1.1-.4Zm4-9.2c.6.3 1.4.2 1.7-.4.4-.6.2-1.3-.3-1.7-.6-.4-1.4-.2-1.7.4-.4.5-.2 1.3.3 1.7Zm12.9-5.5a1 1 0 0 0 1.4-.3 1 1 0 0 0-.3-1.5 1 1 0 0 0-1.4.3 1 1 0 0 0 .3 1.5Zm2.1-3.8c.3.3.7.2 1-.1.1-.4 0-.8-.3-1a.7.7 0 0 0-.9.2c-.2.3-.1.7.2 1Zm-2 10.4a2 2 0 0 0-2.2 2c0 1.1.9 2.1 2 2.2h.1c1.2 0 2.1-1 2.1-2.1a2 2 0 0 0-2-2.1Zm-9.3-1.3a2 2 0 0 0 1.8 1.2c1.2 0 2.1-1 2.1-2.1 0-.4 0-.7-.2-1a2 2 0 0 0-2.8-1c-1 .6-1.5 1.9-1 3Zm16.3-2.7c.4-.2.6-.7.4-1.1a.9.9 0 0 0-1.2-.4c-.4.2-.5.7-.3 1.1.2.5.7.6 1.1.4Zm-5.3.6c-.6.4-.8 1.1-.5 1.8.3.6 1 .8 1.6.5.6-.3.9-1 .6-1.7-.3-.6-1-.8-1.7-.5Zm-6.8-7.3a1 1 0 0 0 1-.8c0-.5-.4-.9-.9-.9s-.9.3-.9.8.3.9.8 1Zm0 5.5c.7 0 1.3-.5 1.3-1.2a1.2 1.2 0 1 0-2.4-.1c0 .7.4 1.3 1.1 1.3Zm-6.6 12.7c.6-.3.8-1 .5-1.7-.3-.6-1-.9-1.6-.5-.6.3-.9 1-.6 1.6.3.6 1 .9 1.7.6ZM27.2 20c-.6 1-.4 2.3.6 3a2 2 0 0 0 2.9-.7c.6-1 .4-2.3-.6-2.9a2 2 0 0 0-2.9.6Zm3.6 8.8A2 2 0 0 0 28 28c-1 .5-1.4 1.8-.9 2.8a2 2 0 0 0 2.8 1c1-.6 1.5-1.8 1-2.8Zm3.7-.1c-.6-.4-1.4-.2-1.7.3-.4.6-.2 1.4.3 1.8.6.3 1.4.2 1.7-.4.4-.6.2-1.3-.3-1.7Zm4-3.2c0-.6-.4-1-1-1a1 1 0 0 0-1.1.9c0 .6.4 1 1 1.1.5 0 1-.4 1-1Zm2.9-.7c-.4 0-.7.2-.7.6 0 .4.2.7.6.7.4 0 .7-.2.7-.6 0-.4-.3-.7-.6-.7Zm-2.8 6.7a.9.9 0 0 0-1.1.3c-.3.4-.2 1 .2 1.2.4.2 1 .1 1.2-.3.3-.4.1-1-.3-1.2Zm-19.1 6.4a.7.7 0 0 0-1 .2c-.2.3 0 .7.2 1 .4.1.8 0 1-.3.2-.3 0-.7-.2-.9Zm14.1-.1c-.3.2-.4.6-.3 1 .2.3.6.4 1 .3.3-.2.4-.6.2-1a.7.7 0 0 0-.9-.3ZM25.8 31c.6-1 .4-2.3-.6-3a2 2 0 0 0-2.9.6c-.6 1-.4 2.3.6 3 .3.2.7.3 1.1.3a2 2 0 0 0 1.8-1Zm-4.2 3.2a1 1 0 0 0-1.4.3 1 1 0 0 0 .3 1.4 1 1 0 0 0 1.1-1.8Zm4.9 4a1 1 0 0 0-1 .8c0 .5.4 1 .9 1s.9-.4.9-.9c0-.4-.3-.8-.8-.9Zm0-5.4c-.7 0-1.3.4-1.3 1.1a1.2 1.2 0 1 0 2.5.2c0-.7-.5-1.3-1.2-1.3Zm5 1.3a1 1 0 0 0-.4 1.4c.2.5.9.7 1.4.5.5-.3.7-1 .4-1.4a1 1 0 0 0-1.4-.5Z"/></g></g><defs><clipPath id="a"><path fill="#fff" d="M.6 0h52v52H.6z"/></clipPath><clipPath id="b"><path fill="#fff" d="M11 11h31v29H11z"/></clipPath></defs></svg>