<svg xmlns="http://www.w3.org/2000/svg" fill="none" viewBox="0 0 52 52"><g clip-path="url(#a)"><path fill="#FFFDF5" d="M0 0h52v52H0z" opacity=".7"/><path fill="url(#b)" d="M18 16v5l13 7.3L18 36h10.8c3.4 0 6.2-2.5 6.2-5.5V26L18 16Z"/><path fill="url(#c)" d="m18 16 17 10v-4.5c0-3-2.8-5.5-6.2-5.5H18Z"/><path fill="url(#d)" d="m27 26-9 5v5l13-7.7-4-2.3Z"/></g><defs><linearGradient id="b" x1="18" x2="37.4" y1="16" y2="18.8" gradientUnits="userSpaceOnUse"><stop stop-color="#161B43"/><stop offset=".7" stop-color="#0157FF"/><stop offset="1" stop-color="#019CFF"/></linearGradient><linearGradient id="c" x1="25" x2="36" y1="20.6" y2="17.7" gradientUnits="userSpaceOnUse"><stop stop-color="#0283FF"/><stop offset="1" stop-color="#01C2FF"/></linearGradient><linearGradient id="d" x1="21.2" x2="36.7" y1="34.1" y2="13.7" gradientUnits="userSpaceOnUse"><stop stop-color="#0157FF"/><stop offset="1" stop-color="#0FF"/></linearGradient><clipPath id="a"><path fill="#fff" d="M0 0h52v52H0z"/></clipPath></defs></svg>