<svg xmlns="http://www.w3.org/2000/svg" fill="none" viewBox="0 0 53 52"><g fill="#FFFDF5" clip-path="url(#a)"><path d="M.3 0h52v52H.3z" opacity=".1"/><path d="m26.2 33.5-.1.1v7l.1.4 9.2-13-9.2 5.5Z" opacity=".5"/><path d="M26.2 41v-7.5L17 28l9.2 13Z"/><path d="m26.2 31.7 9.2-5.4-9.2-4.2v9.6Z" opacity=".1"/><path fill-rule="evenodd" d="M26.2 11Zm0 20.7Zm0-9.6v9.6-9.6l9.2 4.2L26.2 11v11Z" clip-rule="evenodd" opacity=".3"/><path d="m17 26.3 9.2 5.4v-9.6L17 26.3Z" opacity=".5"/><path fill-rule="evenodd" d="M17 26.3 26.2 11v20.7-9.6L17 26.3Z" clip-rule="evenodd"/></g><defs><clipPath id="a"><path fill="#fff" d="M.3 0h52v52H.3z"/></clipPath></defs></svg>