<svg xmlns="http://www.w3.org/2000/svg" fill="none" viewBox="0 0 53 52"><g fill="#FFFDF5" clip-path="url(#a)"><path d="M.6 0h52v52H.6z" opacity=".1"/><path d="M33.4 21.3c-.5-.2-1-.2-1.6 0l-4 2.4-2.7 1.5-3.9 2.3c-.4.3-1 .3-1.6 0l-3-1.8c-.6-.3-1-.9-1-1.5v-3.6c0-.5.4-1.1 1-1.5l3-1.8c.4-.2 1-.2 1.6 0l3 1.9c.6.3 1 .9 1 1.5V23l2.6-1.5V19c0-.6-.3-1.2-.8-1.5l-5.7-3.4c-.5-.3-1.1-.3-1.7 0l-5.8 3.4c-.5.3-.8.9-.8 1.5v6.7c0 .5.3 1 .8 1.4l5.8 3.4c.4.3 1 .3 1.6 0l4-2.3 2.6-1.6 3.9-2.2c.5-.3 1.1-.3 1.7 0l3 1.7c.5.3.8.9.8 1.5v3.6c0 .6-.2 1.1-.8 1.5l-3 1.8c-.5.3-1 .3-1.6 0l-3-1.8c-.6-.3-1-.9-1-1.5V29l-2.6 1.6v2.3c0 .6.3 1.2.8 1.5l5.8 3.4c.4.3 1 .3 1.6 0l5.8-3.4c.4-.2.8-.8.8-1.5v-6.7c0-.6-.3-1.2-.8-1.5l-5.8-3.4Z"/></g><defs><clipPath id="a"><path fill="#fff" d="M.6 0h52v52H.6z"/></clipPath></defs></svg>