<svg xmlns="http://www.w3.org/2000/svg" fill="none" viewBox="0 0 52 52"><g fill="#FFFDF5" clip-path="url(#a)"><path d="M0 0h52v52H0z" opacity=".1"/><g clip-path="url(#b)"><path d="m19.2 30.2.5-.2h16c.3 0 .4.4.2.6l-3.1 3.2-.5.2h-16c-.3 0-.4-.4-.2-.6l3.1-3.2Zm0-12 .5-.2h16c.3 0 .4.4.2.6l-3.1 3.2-.5.2h-16c-.3 0-.4-.4-.2-.6l3.1-3.2Zm13.6 6a.6.6 0 0 0-.5-.2h-16c-.3 0-.4.3-.2.5l3.1 3.3.5.2h16c.3 0 .4-.4.2-.6l-3.1-3.2Z"/></g></g><defs><clipPath id="a"><path fill="#fff" d="M0 0h52v52H0z"/></clipPath><clipPath id="b"><path fill="#fff" d="M16 18h20v16H16z"/></clipPath></defs></svg>