<svg width="336" height="160" viewBox="0 0 336 160" fill="none" xmlns="http://www.w3.org/2000/svg">
<path d="M172.795 84.1667C168.378 84.1667 164.878 87.5833 164.878 92.0833C164.878 96.5833 168.461 100 172.795 100C177.211 100 180.711 96.5 180.711 92.0833C180.711 87.5833 177.211 84.1667 172.795 84.1667ZM172.795 87.3333C175.461 87.3333 177.461 89.3333 177.461 92.0833C177.461 94.8333 175.378 96.8333 172.795 96.8333C170.128 96.8333 168.128 94.8333 168.128 92.0833C168.045 89.3333 170.128 87.3333 172.795 87.3333ZM238.711 94.9167V87.6667H242.461V84.5H238.711V80.25L235.461 81.25V84.5H232.711V87.6667H235.461V94.9167C235.461 98.8333 237.461 100.25 242.461 99.5833V96.6667C239.961 96.8333 238.711 96.8333 238.711 94.9167ZM255.545 96.5833H248.128L255.545 87.6667V84.6667H244.045V87.6667H251.461L244.045 96.5833V99.6667H255.545V96.5833V96.5833ZM189.878 84.3333V87.8333C187.711 87.6667 185.211 88.6667 185.211 92.0833V99.6667H181.961V84.5833H185.211V87.0833C186.128 85.0833 187.961 84.3333 189.878 84.3333ZM197.711 84.1667C193.295 84.1667 189.795 87.5833 189.795 92.0833C189.795 96.5833 193.378 100 197.711 100C202.128 100 205.628 96.5 205.628 92.0833C205.711 87.5833 202.211 84.1667 197.711 84.1667ZM197.711 87.3333C200.378 87.3333 202.378 89.3333 202.378 92.0833C202.378 94.8333 200.295 96.8333 197.711 96.8333C195.045 96.8333 193.045 94.8333 193.045 92.0833C193.045 89.3333 195.128 87.3333 197.711 87.3333ZM227.128 84.5833L222.378 99.6667H219.211L216.045 89.5L212.878 99.6667H209.711L204.961 84.5833H208.378L211.295 95L214.461 84.5833H217.545L220.711 95L223.628 84.5833H227.128V84.5833ZM231.461 84.5833H228.211V99.6667H231.461V84.5833V84.5833ZM125.711 61V67.25C124.461 66.3333 122.711 65.5833 121.045 65.5833C116.378 65.5833 112.628 69.6667 113.128 74.4167C113.545 78.0833 116.545 81.0833 120.211 81.5C122.295 81.6667 124.211 81.0833 125.711 80V81.1667H129.045V60L125.711 61ZM125.628 73.5833C125.628 76.5 122.961 78.75 119.961 78.0833C118.211 77.75 116.795 76.3333 116.378 74.5C115.795 71.5 118.128 68.8333 121.045 68.8333C123.545 68.8333 125.628 70.9167 125.628 73.5833V73.5833ZM93.5448 66.0833V67.0833C92.2948 66.1667 90.6282 65.5833 88.9615 65.5833C84.2948 65.5833 80.5448 69.6667 81.0448 74.4167C81.4615 78.0833 84.4615 81.0833 88.1282 81.5C90.2115 81.6667 92.1282 81.0833 93.6282 80V81.1667H96.9615V66.0833H93.5448V66.0833ZM93.5448 73.5833C93.5448 76.5 90.8782 78.75 87.8782 78.0833C86.1282 77.75 84.7115 76.3333 84.2948 74.5C83.7115 71.5 86.0448 68.8333 88.9615 68.8333C91.4615 68.8333 93.5448 70.9167 93.5448 73.5833ZM106.128 65.6667C104.045 65.6667 102.461 66.4167 101.461 68V66H98.2115V81.0833H101.461V73C101.461 69.9167 103.128 68.6667 105.295 68.6667C107.378 68.6667 108.628 69.8333 108.628 72.1667V81.0833H111.878V71.9167C111.961 68 109.545 65.6667 106.128 65.6667ZM166.711 76.6667C165.961 77.75 164.628 78.5 162.795 78.5C160.378 78.5 158.461 77.3333 157.961 74.9167H169.961C170.045 74.5 170.045 74 170.045 73.5833C170.045 69.25 166.961 65.6667 162.461 65.6667C157.711 65.6667 154.545 69.1667 154.545 73.5833C154.545 78.0833 157.795 81.5 162.711 81.5C165.628 81.5 167.961 80.25 169.295 78.25L166.711 76.6667V76.6667ZM162.545 68.6667C164.545 68.6667 166.378 69.75 166.878 72.3333H157.961C158.461 70.0833 160.128 68.6667 162.545 68.6667ZM203.961 78.5833C205.795 78.5833 207.128 77.75 207.878 76.75L210.545 78.3333C209.128 80.4167 206.878 81.5833 203.961 81.5833C198.961 81.5833 195.795 78.1667 195.795 73.6667C195.795 69.1667 199.045 65.75 203.711 65.75C208.211 65.75 211.295 69.3333 211.295 73.6667C211.295 73.8333 211.295 74.0833 211.211 74.3333C211.211 74.5833 211.128 74.75 211.128 75H199.128C199.628 77.3333 201.545 78.5833 203.961 78.5833V78.5833ZM207.961 72.3333C207.545 69.75 205.628 68.6667 203.628 68.6667C201.211 68.6667 199.545 70.0833 199.045 72.3333H207.961ZM231.461 81.1667H228.211V78.25H231.461V81.1667ZM212.878 81.1667H216.128V73.0833C216.128 70 217.795 68.75 219.961 68.75C221.961 68.75 223.295 70 223.295 72.25V81.0833H226.545V71.8333C226.545 67.9167 224.128 65.6667 220.795 65.6667C218.711 65.6667 217.128 66.4167 216.128 68V66.0833H212.878V81.1667V81.1667ZM174.378 70.25C174.378 69.1667 175.378 68.6667 176.545 68.6667C177.711 68.6667 178.711 69.1667 179.295 70.1667L182.128 68.75C181.045 66.8333 179.045 65.6667 176.545 65.6667C173.461 65.6667 171.045 67.4167 171.045 70.25C171.045 73.4167 173.711 74.1667 176.045 74.8333H176.128C176.211 74.8333 176.295 74.9167 176.378 74.9167C177.961 75.4167 179.128 75.75 179.128 76.8333C179.128 78 178.045 78.5 176.545 78.5C175.128 78.5 173.961 77.9167 173.378 76.8333L170.461 78.25C171.461 80.25 173.628 81.5 176.461 81.5C179.711 81.5 182.378 79.8333 182.378 76.8333C182.378 73.5833 179.545 72.75 177.295 72.1667C175.795 71.75 174.378 71.3333 174.378 70.25V70.25ZM186.961 70.25C186.961 69.1667 187.961 68.6667 189.128 68.6667C190.295 68.6667 191.295 69.1667 191.961 70.25L194.795 68.8333C193.711 66.9167 191.628 65.75 189.211 65.75C186.128 65.75 183.711 67.5 183.711 70.3333C183.711 73.5 186.378 74.25 188.711 74.9167H188.961C190.461 75.4167 191.795 75.8333 191.795 76.9167C191.795 78.0833 190.628 78.5833 189.211 78.5833C187.711 78.5833 186.628 78 186.045 76.9167L183.128 78.3333C184.128 80.3333 186.211 81.5833 189.128 81.5833C192.461 81.5833 195.045 79.9167 195.045 76.9167C195.045 73.6667 192.378 72.9167 190.045 72.25H189.961C189.795 72.25 189.711 72.1667 189.545 72.1667C188.128 71.6667 186.961 71.3333 186.961 70.25V70.25ZM138.295 69.3333V65.8333C136.378 65.8333 134.545 66.5833 133.628 68.5833V66.0833H130.378V81.1667H133.628V73.5833C133.628 70.1667 136.128 69.1667 138.295 69.3333V69.3333ZM153.211 78.25V86.5C154.211 84.9167 155.795 84.1667 157.878 84.1667C161.211 84.1667 163.628 86.4167 163.628 90.3333V99.6667H160.378V90.75C160.378 88.5 159.045 87.25 157.045 87.25C154.878 87.25 153.211 88.5 153.211 91.5833V99.6667H149.961V80.9167C148.961 81.3333 147.878 81.5833 146.628 81.5833C141.628 81.5833 138.461 78.1667 138.461 73.6667C138.461 69.1667 141.711 65.75 146.378 65.75C150.878 65.75 153.961 69.3333 153.961 73.6667C153.961 73.8333 153.961 74.0833 153.878 74.3333C153.878 74.5833 153.795 74.75 153.795 75H141.795C142.295 77.3333 144.211 78.5833 146.628 78.5833C148.045 78.5833 149.128 78.0833 149.961 77.4167C150.211 77.25 150.378 77 150.545 76.75L153.211 78.25V78.25ZM150.628 72.3333C150.128 69.75 148.295 68.6667 146.295 68.6667C143.878 68.6667 142.211 70.0833 141.795 72.3333H150.628V72.3333Z" fill="black"/>
<rect x="0.5" y="0.5" width="335" height="159" rx="13.5" stroke="white" stroke-opacity="0.25"/>
</svg>
