<svg width="336" height="160" viewBox="0 0 336 160" fill="none" xmlns="http://www.w3.org/2000/svg">
<path d="M106 73.5101C106 71.9437 106.653 70.7316 107.977 69.8551C109.301 68.9787 111.427 68.3819 114.354 68.0836C114.317 67.4309 114.112 66.9087 113.758 66.5171C113.403 66.1255 112.825 65.939 112.023 65.9204C111.371 65.9204 110.718 66.0509 110.103 66.2747C109.394 66.5544 108.723 66.8714 108.07 67.2631L106.503 64.354C107.455 63.7759 108.462 63.3097 109.524 62.9367C110.606 62.5824 111.725 62.3959 112.862 62.3959C114.783 62.3959 116.238 62.9367 117.263 64.037C118.27 65.1185 118.774 66.8155 118.774 69.1278V77.65H115.175L114.839 76.1208H114.746C114.131 76.6616 113.459 77.1278 112.713 77.4821C111.986 77.8364 111.203 78.0229 110.382 78.0043C109.748 78.0229 109.133 77.8924 108.555 77.65C108.033 77.4262 107.566 77.1092 107.175 76.6989C106.783 76.2887 106.485 75.8038 106.298 75.2817C106.112 74.7036 106 74.1068 106 73.5101ZM110.196 73.1744C110.196 73.6593 110.345 74.0136 110.662 74.2374C110.979 74.4612 111.389 74.573 111.911 74.5917C112.434 74.5917 112.862 74.4798 113.235 74.256C113.646 73.995 114.037 73.6779 114.373 73.3236V70.7129C112.788 70.9367 111.706 71.2537 111.11 71.664C110.513 72.0929 110.196 72.5964 110.196 73.1744Z" fill="black"/>
<path d="M122.562 62.7694H126.161L126.459 65.3801H126.571C127.112 64.3545 127.764 63.6086 128.529 63.1237C129.293 62.6389 130.039 62.3965 130.804 62.4151C131.158 62.4151 131.494 62.4338 131.848 62.4897C132.109 62.527 132.352 62.6016 132.575 62.7135L131.848 66.5177C131.587 66.4431 131.326 66.3871 131.065 66.3312C130.785 66.2939 130.506 66.2752 130.226 66.2752C129.666 66.2752 129.088 66.4804 128.473 66.872C127.858 67.2636 127.354 67.9722 126.962 68.9978V77.6505H122.562V62.7694Z" fill="black"/>
<path d="M134.494 62.7694H138.093L138.392 65.3801H138.504C139.044 64.3545 139.697 63.6086 140.462 63.1237C141.226 62.6389 141.972 62.3965 142.737 62.4151C143.091 62.4151 143.427 62.4338 143.762 62.4897C144.023 62.527 144.266 62.6016 144.49 62.7135L143.762 66.5177C143.501 66.4431 143.24 66.3871 142.979 66.3312C142.699 66.2939 142.42 66.2752 142.14 66.2752C141.581 66.2752 141.002 66.4804 140.387 66.872C139.772 67.2636 139.268 67.9722 138.877 68.9978V77.6505H134.457V62.7694H134.494Z" fill="black"/>
<path d="M146.431 62.7689H150.832V77.65H146.431V62.7689Z" fill="black"/>
<path d="M154.71 62.7695H158.309L158.607 64.6529H158.719C159.353 64.0562 160.062 63.534 160.826 63.0865C161.591 62.6389 162.468 62.4152 163.493 62.4152C165.116 62.4152 166.29 62.9373 167.018 64.0002C167.745 65.0632 168.118 66.5364 168.118 68.4011V77.6505H163.717V68.9792C163.717 67.8977 163.568 67.1517 163.288 66.7601C162.99 66.3685 162.542 66.1634 161.889 66.1634C161.386 66.1447 160.882 66.2753 160.454 66.5364C159.987 66.8534 159.54 67.2077 159.13 67.5993V77.6505H154.71V62.7695Z" fill="black"/>
<path d="M170.912 80.2053C170.912 79.0118 171.621 78.0048 173.038 77.203V77.0911C172.646 76.83 172.311 76.4944 172.05 76.1028C171.789 75.7111 171.658 75.189 171.658 74.5736C171.658 74.0142 171.826 73.492 172.143 73.0258C172.46 72.541 172.87 72.1121 173.336 71.7764V71.6645C172.814 71.3102 172.348 70.7881 171.938 70.1168C171.527 69.4454 171.322 68.6809 171.322 67.7858C171.322 66.8907 171.49 66.1075 171.826 65.4361C172.143 64.7834 172.609 64.2054 173.187 63.7578C173.765 63.3103 174.437 62.956 175.145 62.7508C175.891 62.527 176.674 62.4152 177.458 62.4152C178.334 62.4152 179.099 62.527 179.77 62.7695H185.196V65.9769H182.828C182.977 66.238 183.108 66.5177 183.182 66.8161C183.276 67.1704 183.313 67.5433 183.313 67.9349C183.313 68.7928 183.164 69.5387 182.865 70.1727C182.586 70.7881 182.157 71.3102 181.616 71.7391C181.057 72.168 180.423 72.4664 179.751 72.6529C179.005 72.858 178.241 72.9512 177.458 72.9512C176.842 72.9512 176.245 72.8394 175.667 72.6529C175.5 72.7834 175.35 72.9512 175.238 73.1377C175.145 73.3429 175.108 73.548 175.127 73.7718C175.108 74.1261 175.313 74.4617 175.63 74.6109C175.966 74.7974 176.544 74.872 177.383 74.872H179.789C181.635 74.872 183.033 75.1703 184.003 75.7484C184.973 76.3452 185.458 77.2962 185.458 78.6389C185.458 79.4034 185.271 80.1493 184.879 80.7834C184.469 81.4547 183.891 82.0328 183.22 82.4617C182.492 82.9279 181.635 83.3009 180.609 83.5806C179.49 83.8603 178.315 83.9908 177.159 83.9908C176.339 83.9908 175.518 83.9162 174.716 83.7671C174.026 83.6365 173.355 83.4127 172.74 83.0957C172.199 82.8347 171.733 82.4244 171.397 81.9209C171.08 81.4361 170.912 80.858 170.912 80.2053ZM174.548 79.5153C174.548 80.0748 174.847 80.5037 175.444 80.7834C176.04 81.0817 176.842 81.2123 177.849 81.2123C178.856 81.2123 179.677 81.0445 180.311 80.6901C180.945 80.3358 181.262 79.9069 181.262 79.3848C181.262 78.9186 181.075 78.6202 180.684 78.4524C180.292 78.2846 179.733 78.21 178.987 78.21H177.458C176.935 78.21 176.525 78.1913 176.189 78.1727C175.91 78.154 175.63 78.0981 175.35 78.0421C174.828 78.527 174.548 79.0118 174.548 79.5153ZM177.495 70.2659C178.054 70.2846 178.576 70.0608 178.949 69.6506C179.341 69.2403 179.527 68.6249 179.527 67.7858C179.527 67.0026 179.341 66.4058 178.949 65.9956C178.576 65.5853 178.054 65.3615 177.495 65.3802C176.954 65.3615 176.413 65.5853 176.04 65.9769C175.649 66.3685 175.462 66.9839 175.462 67.7671C175.462 68.6063 175.649 69.2217 176.04 69.6319C176.413 70.0608 176.935 70.2846 177.495 70.2659Z" fill="black"/>
<path d="M188.46 66.2192H186.428V62.9558L188.703 62.7693L189.206 58.816H192.861V62.7693H196.423V66.2192H192.861V72.1866C192.861 73.0257 193.029 73.6224 193.383 73.9954C193.738 74.3684 194.204 74.5548 194.782 74.5548C195.024 74.5548 195.267 74.5175 195.509 74.4616C195.733 74.4057 195.957 74.3311 196.181 74.2565L196.871 77.4639C196.479 77.5758 195.994 77.7063 195.453 77.8182C194.838 77.9488 194.204 78.0047 193.57 78.0047C192.656 78.0047 191.873 77.8742 191.22 77.5945C190.605 77.3334 190.064 76.9418 189.635 76.4196C189.206 75.8788 188.908 75.2635 188.74 74.6108C188.535 73.8462 188.442 73.0444 188.46 72.2611V66.2192Z" fill="black"/>
<path d="M198.181 70.21C198.181 68.9792 198.386 67.8604 198.777 66.8907C199.15 65.9769 199.691 65.1378 200.381 64.4478C201.052 63.7951 201.836 63.273 202.712 62.9373C203.589 62.583 204.502 62.4152 205.435 62.4152C206.367 62.4152 207.281 62.583 208.157 62.9373C209.015 63.2916 209.798 63.7951 210.47 64.4478C211.16 65.1378 211.719 65.9769 212.073 66.8907C212.465 67.8604 212.67 68.9606 212.67 70.21C212.67 71.4594 212.465 72.5596 212.073 73.5293C211.7 74.4431 211.16 75.2822 210.47 75.9722C209.817 76.6249 209.015 77.147 208.157 77.4827C207.3 77.837 206.367 78.0048 205.435 78.0048C204.502 78.0048 203.57 77.837 202.712 77.4827C201.836 77.147 201.052 76.6249 200.381 75.9722C199.691 75.2822 199.132 74.4431 198.777 73.5293C198.386 72.5596 198.181 71.4594 198.181 70.21ZM202.712 70.21C202.712 71.5154 202.936 72.541 203.383 73.3056C203.831 74.0701 204.521 74.4431 205.435 74.4431C206.33 74.4431 207.02 74.0701 207.467 73.3056C207.934 72.541 208.157 71.5154 208.157 70.21C208.157 68.9046 207.934 67.879 207.467 67.1144C207.001 66.3499 206.33 65.9769 205.435 65.9769C204.521 65.9769 203.831 66.3499 203.383 67.1144C202.936 67.879 202.712 68.9046 202.712 70.21Z" fill="black"/>
<path d="M215.687 62.7695H219.286L219.584 64.6529H219.696C220.33 64.0562 221.038 63.534 221.803 63.0865C222.568 62.6389 223.444 62.4152 224.47 62.4152C226.092 62.4152 227.267 62.9373 227.994 64.0002C228.721 65.0632 229.094 66.5364 229.094 68.4011V77.6505H224.693V68.9792C224.693 67.8977 224.544 67.1517 224.265 66.7601C223.966 66.3685 223.519 66.1634 222.866 66.1634C222.362 66.1447 221.859 66.2753 221.43 66.5364C220.964 66.8534 220.516 67.2077 220.106 67.5993V77.6505H215.687V62.7695Z" fill="black"/>
<path d="M109.804 93.333L106.242 87.03H108.07L109.86 90.368C110.028 90.6664 110.177 90.9647 110.326 91.2445C110.476 91.5242 110.662 91.8598 110.867 92.2515H110.942C111.128 91.8598 111.277 91.5242 111.427 91.2445C111.557 90.9647 111.706 90.6664 111.855 90.368L113.59 87.03H115.343L111.8 93.4263L115.604 100.102H113.776L111.837 96.5778C111.669 96.2608 111.482 95.9251 111.315 95.5894C111.128 95.2538 110.942 94.8808 110.718 94.4892H110.643C110.457 94.8808 110.289 95.2538 110.121 95.5894C109.953 95.9251 109.786 96.2608 109.618 96.5778L107.734 100.102H106L109.804 93.333Z" fill="black"/>
<path d="M124.76 100.084L121.609 94.5638H119.259V100.084H117.6V87.03H121.702C122.318 87.03 122.933 87.086 123.53 87.2165C124.052 87.3284 124.537 87.5335 124.966 87.8319C125.376 88.1303 125.693 88.5219 125.898 88.9694C126.122 89.4356 126.234 90.0137 126.234 90.685C126.234 91.7107 125.973 92.5312 125.432 93.1279C124.891 93.7246 124.182 94.1535 123.306 94.3773L126.625 100.065L124.76 100.084ZM119.259 93.2211H121.441C122.467 93.2211 123.25 93.016 123.772 92.6058C124.313 92.1955 124.574 91.5615 124.574 90.7037C124.574 89.8459 124.313 89.2305 123.772 88.8948C123.231 88.5592 122.467 88.3727 121.441 88.3727H119.259V93.2211Z" fill="black"/>
<path d="M129.047 87.03H133.075C133.746 87.03 134.399 87.086 135.052 87.2352C135.592 87.347 136.114 87.5708 136.581 87.8878C137.01 88.1862 137.345 88.5965 137.55 89.0627C137.774 89.5475 137.905 90.1629 137.905 90.8715C137.905 91.5615 137.793 92.1582 137.55 92.6617C137.327 93.1466 136.991 93.5755 136.562 93.9111C136.114 94.2654 135.592 94.5079 135.033 94.657C134.399 94.8249 133.728 94.9181 133.075 94.8995H130.725V100.084H129.047V87.03V87.03ZM132.851 93.5568C134.007 93.5568 134.865 93.333 135.406 92.9041C135.947 92.4752 136.226 91.7853 136.226 90.8715C136.226 89.9205 135.947 89.2678 135.387 88.9135C134.828 88.5592 133.97 88.3727 132.851 88.3727H130.725V93.5755H132.851V93.5568Z" fill="black"/>
<path d="M162.019 93.9674C162 93.0163 162.15 92.0466 162.448 91.1329C162.709 90.3497 163.119 89.6224 163.679 89.007C164.201 88.4289 164.816 87.9814 165.525 87.6644C166.252 87.3474 167.054 87.1982 167.837 87.1982C168.565 87.1795 169.273 87.3474 169.926 87.683C170.485 87.9627 170.989 88.3543 171.399 88.8019L170.467 89.8648C170.131 89.5105 169.739 89.2122 169.31 88.9884C168.863 88.7646 168.359 88.6527 167.856 88.6527C167.259 88.6527 166.681 88.7646 166.159 89.0257C165.655 89.2681 165.208 89.6411 164.854 90.0886C164.481 90.5921 164.182 91.1515 164.014 91.7483C163.809 92.4569 163.697 93.2028 163.716 93.9301C163.697 94.676 163.809 95.4219 163.996 96.1492C164.164 96.7459 164.443 97.324 164.816 97.8275C165.506 98.7599 166.607 99.3193 167.781 99.282C168.359 99.3007 168.919 99.1702 169.422 98.9091C169.926 98.6294 170.373 98.2751 170.765 97.8275L171.697 98.8345C171.213 99.4126 170.634 99.8788 169.963 100.233C169.273 100.569 168.509 100.737 167.725 100.737C166.942 100.737 166.159 100.587 165.45 100.27C164.76 99.972 164.145 99.5245 163.642 98.9464C163.101 98.331 162.69 97.6037 162.429 96.8205C162.15 95.9068 162 94.9371 162.019 93.9674Z" fill="black"/>
<path d="M180.011 96.5217H175.256L174.007 100.494H172.31L176.729 87.4402H178.594L183.013 100.494H181.261L180.011 96.5217ZM179.582 95.1791L178.967 93.1837C178.743 92.4565 178.519 91.7292 178.314 91.0019C178.109 90.2747 177.885 89.5474 177.68 88.7828H177.606C177.4 89.5474 177.177 90.2747 176.972 91.0019C176.766 91.7292 176.543 92.4565 176.319 93.1837L175.685 95.1791H179.582Z" fill="black"/>
<path d="M184.751 87.4402H188.779C189.45 87.4402 190.103 87.4961 190.756 87.6453C191.296 87.7572 191.819 87.981 192.285 88.298C192.714 88.5964 193.049 89.0066 193.254 89.4915C193.478 89.9763 193.609 90.5917 193.609 91.3003C193.609 91.9903 193.497 92.587 193.254 93.0905C193.031 93.5754 192.695 94.0043 192.266 94.3399C191.819 94.6942 191.296 94.9367 190.737 95.0858C190.103 95.2537 189.432 95.3469 188.779 95.3283H186.429V100.512H184.751V87.4402V87.4402ZM188.555 93.967C189.711 93.967 190.569 93.7432 191.11 93.3143C191.669 92.8854 191.93 92.1954 191.93 91.2817C191.93 90.3306 191.651 89.6779 191.091 89.3236C190.532 88.9507 189.674 88.7828 188.555 88.7828H186.429V93.9856L188.555 93.967Z" fill="black"/>
<path d="M196.108 87.4402H197.787V100.494H196.108V87.4402Z" fill="black"/>
<path d="M203.975 88.8388H200.021V87.4402H209.588V88.8388H205.616V100.512H203.956V88.8388H203.975Z" fill="black"/>
<path d="M216.99 96.5217H212.234L210.985 100.494H209.288L213.708 87.4402H215.572L219.992 100.494H218.239L216.99 96.5217ZM216.561 95.1791L215.945 93.1837C215.722 92.4565 215.498 91.7292 215.293 91.0019C215.088 90.2747 214.864 89.5474 214.659 88.7828H214.584C214.379 89.5474 214.155 90.2747 213.95 91.0019C213.745 91.7292 213.521 92.4565 213.297 93.1837L212.663 95.1791H216.561Z" fill="black"/>
<path d="M221.729 87.4402H223.407V99.0765H229.094V100.494H221.729V87.4402Z" fill="black"/>
<path d="M155.195 102.974C155.027 102.974 154.859 102.974 154.71 102.993C154.859 102.993 155.027 102.993 155.195 102.974ZM155.269 102.974H155.195H155.269ZM144.603 103.142C144.472 103.123 144.36 103.105 144.23 103.105C144.36 103.105 144.491 103.123 144.603 103.142ZM140.482 103.012C140.258 103.291 140.221 103.683 140.37 104L140.388 103.981C140.407 103.963 140.426 103.944 140.444 103.925C140.463 103.907 140.463 103.907 140.482 103.888L140.538 103.832C140.556 103.813 140.575 103.813 140.594 103.795L140.65 103.757L140.705 103.72L140.761 103.683L140.817 103.646L140.892 103.608L140.967 103.571L141.022 103.534L141.078 103.496L141.153 103.459L141.228 103.422L141.302 103.385L141.377 103.366C141.395 103.347 141.433 103.347 141.451 103.329L141.526 103.31L141.601 103.291L141.675 103.273L141.75 103.254L141.824 103.235H141.862L142.029 103.198L142.085 103.179L142.16 103.161L142.272 103.142L142.328 103.123H142.384L142.533 103.105L142.663 103.086L142.813 103.068H142.887H142.962H143.055H143.167H143.279H143.484H143.577H143.689C143.726 103.068 143.745 103.068 143.782 103.068C143.82 103.068 143.857 103.068 143.894 103.068H143.987H144.099H144.193L144.305 103.086L144.398 103.105L144.51 103.123L144.603 103.142C144.64 103.142 144.677 103.161 144.715 103.161L144.808 103.179L144.901 103.198L144.994 103.217C145.032 103.217 145.069 103.235 145.125 103.235L145.2 103.254L145.33 103.291C145.367 103.31 145.423 103.31 145.461 103.329L145.591 103.366L145.684 103.403C145.722 103.422 145.759 103.422 145.796 103.44C145.852 103.459 145.908 103.478 145.964 103.478L146.02 103.496L146.132 103.515H146.188C146.225 103.515 146.263 103.515 146.3 103.534H146.356H146.449H146.524H146.691H146.785H146.841C146.878 103.534 146.915 103.534 146.953 103.515C146.971 103.515 146.971 103.515 146.99 103.515H147.008C147.064 103.515 147.12 103.496 147.158 103.496C147.214 103.478 147.251 103.478 147.307 103.459C147.475 103.422 147.642 103.347 147.792 103.254C147.848 103.217 147.922 103.161 147.978 103.105C147.997 103.086 148.015 103.068 148.034 103.049C148.034 103.049 148.034 103.049 148.053 103.03C148.071 103.012 148.071 102.993 148.09 102.993C148.109 102.974 148.109 102.956 148.127 102.937V102.918C148.127 102.918 148.146 102.881 148.146 102.862C148.146 102.844 148.165 102.825 148.165 102.806C148.165 102.806 148.165 102.806 148.165 102.788C148.165 102.769 148.165 102.751 148.165 102.732C148.165 102.732 148.165 102.732 148.165 102.713C148.165 102.695 148.165 102.676 148.165 102.657C148.165 102.639 148.165 102.62 148.165 102.601C148.165 102.601 148.165 102.601 148.165 102.583C148.165 102.545 148.146 102.508 148.127 102.471C148.127 102.452 148.109 102.433 148.109 102.415C148.09 102.396 148.09 102.378 148.071 102.359L148.034 102.303C148.015 102.284 147.997 102.266 147.978 102.247C147.959 102.228 147.941 102.21 147.922 102.191H147.904L147.848 102.135C147.381 102.415 146.598 102.508 145.927 102.303C145.89 102.284 145.852 102.284 145.834 102.284C145.796 102.266 145.759 102.266 145.74 102.247C143.633 101.65 141.209 102.023 140.5 103.068M140.948 100.643C140.724 100.942 140.705 101.352 140.892 101.669C141.712 100.886 143.652 100.587 145.461 100.998L145.479 101.016C145.442 100.979 145.405 100.96 145.349 100.923C145.311 100.886 145.256 100.848 145.218 100.811C145.181 100.774 145.144 100.737 145.088 100.699C145.05 100.662 145.013 100.625 144.976 100.587C144.92 100.531 144.883 100.475 144.827 100.42C144.789 100.364 144.752 100.326 144.715 100.27C144.566 100.065 144.454 99.8414 144.379 99.599C142.887 99.5244 141.47 99.916 140.948 100.643ZM150.384 82.648C150.44 82.6853 150.514 82.7413 150.57 82.7972C150.44 82.6107 150.253 82.4615 150.029 82.3869C149.339 82.1259 148.463 82.2937 148.146 82.7413C148.146 82.7413 148.146 82.7599 148.127 82.7599C148.146 82.7413 148.183 82.7226 148.202 82.704C148.221 82.6853 148.258 82.6667 148.295 82.648C148.5 82.5175 148.724 82.4429 148.966 82.4056H149.004L149.097 82.3869H149.153H149.228H149.377H149.451H149.526H149.601C149.619 82.3869 149.638 82.3869 149.675 82.4056C149.712 82.4242 149.731 82.4242 149.75 82.4242L149.824 82.4429C149.843 82.4429 149.88 82.4615 149.899 82.4615L149.955 82.4802C149.992 82.4988 150.029 82.4988 150.048 82.5175L150.085 82.5361H150.104C150.141 82.5548 150.179 82.5734 150.197 82.5734L150.235 82.5921C150.253 82.6107 150.29 82.6294 150.309 82.6294L150.346 82.648H150.384ZM150.869 83.2634C150.794 83.021 150.552 82.7786 150.16 82.6294C149.321 82.3124 148.277 82.5175 147.885 83.0583C147.848 83.1142 147.81 83.1702 147.792 83.2261C147.829 83.1888 147.848 83.1515 147.885 83.1329C147.922 83.0956 147.941 83.0769 147.978 83.0396C148.015 83.021 148.053 82.9837 148.09 82.965C148.127 82.9464 148.165 82.9091 148.221 82.8904C148.258 82.8718 148.314 82.8531 148.351 82.8345H148.37C148.407 82.8159 148.463 82.7972 148.5 82.7786H148.519C148.575 82.7599 148.612 82.7413 148.668 82.7413H148.687C148.743 82.7226 148.78 82.7226 148.836 82.704H148.855C148.911 82.704 148.948 82.6853 149.004 82.6853H149.022C149.078 82.6853 149.134 82.6667 149.172 82.6667H149.19C149.246 82.6667 149.302 82.6667 149.358 82.6667H149.377C149.433 82.6667 149.489 82.6667 149.545 82.6667H149.563C149.619 82.6667 149.675 82.6853 149.731 82.6853C149.787 82.6853 149.843 82.704 149.899 82.7226C149.955 82.7413 150.011 82.7413 150.067 82.7599C150.123 82.7786 150.179 82.7972 150.235 82.8159C150.272 82.8345 150.309 82.8345 150.328 82.8531H150.346L150.44 82.8904C150.477 82.9091 150.496 82.9277 150.533 82.9464C150.552 82.965 150.589 82.9837 150.608 83.0023C150.701 83.0956 150.794 83.1888 150.869 83.2634ZM151.111 83.7296C151.018 83.4312 150.738 83.1515 150.29 82.9837C149.321 82.6107 148.109 82.8531 147.661 83.4872C147.605 83.5618 147.568 83.6177 147.549 83.711L147.587 83.655C147.605 83.6364 147.624 83.6177 147.624 83.5991C147.642 83.5804 147.661 83.5618 147.68 83.5431C147.698 83.5245 147.717 83.5058 147.736 83.4872L147.792 83.4499C147.81 83.4312 147.829 83.4126 147.848 83.4126C147.866 83.3939 147.885 83.3753 147.904 83.3753L147.978 83.338C147.997 83.3193 148.015 83.3193 148.053 83.3007H148.071C148.09 83.282 148.127 83.2821 148.146 83.2634H148.165L148.239 83.2261H148.258L148.332 83.2075H148.351L148.426 83.1888H148.444L148.519 83.1702H148.538L148.612 83.1515H148.631L148.705 83.1329H148.724L148.799 83.1142H148.817L148.892 83.0956H148.911H148.985H149.022H149.097H149.134H149.209H149.339C149.358 83.0956 149.395 83.0956 149.414 83.0956H149.451H149.526H149.563H149.638H149.675H149.75H149.768L149.843 83.1142H149.862L149.936 83.1329H149.955C150.085 83.1702 150.216 83.2075 150.346 83.2448C150.384 83.2634 150.421 83.282 150.458 83.3007L150.477 83.3193C150.552 83.3566 150.626 83.3939 150.682 83.4312H150.701C150.757 83.4685 150.831 83.5245 150.887 83.5618C150.962 83.5804 151.036 83.655 151.111 83.7296ZM151.708 84.5315C151.764 84.5501 151.838 84.5688 151.894 84.6061C151.894 84.4569 151.764 84.3077 151.484 84.2145C151.428 84.1958 151.353 84.1772 151.297 84.1772C151.167 83.8788 150.85 83.6177 150.384 83.4312C149.283 83.0023 147.885 83.2821 147.381 84.0093C147.325 84.0839 147.288 84.1585 147.251 84.2517C147.12 84.289 147.008 84.3636 146.915 84.4755C146.878 84.5315 146.859 84.5874 146.859 84.6434C146.953 84.6061 147.027 84.5688 147.12 84.5501H147.139H147.158C147.176 84.5315 147.176 84.4942 147.195 84.4755C147.214 84.4569 147.232 84.4196 147.251 84.3823C147.27 84.345 147.288 84.3263 147.325 84.289L147.344 84.2704C147.736 83.8042 148.5 83.5431 149.283 83.5618C149.675 83.5618 150.067 83.6364 150.421 83.7855C150.477 83.8042 150.514 83.8228 150.57 83.8415L150.589 83.8601C150.626 83.8788 150.682 83.8974 150.719 83.9347L150.738 83.9534C150.831 84.0093 150.906 84.0466 150.98 84.1212C151.018 84.1585 151.055 84.1772 151.074 84.2145L151.111 84.2517C151.13 84.2704 151.148 84.289 151.148 84.289L151.167 84.3077L151.204 84.3636C151.204 84.3823 151.223 84.3823 151.223 84.4009C151.242 84.4196 151.242 84.4382 151.26 84.4569L151.279 84.4942C151.297 84.5128 151.297 84.5315 151.316 84.5501V84.5315C151.503 84.4755 151.614 84.5128 151.708 84.5315ZM152.398 85.3333C152.416 85.1468 152.249 84.9604 151.913 84.8671C151.782 84.8298 151.633 84.7925 151.503 84.7925C151.335 84.4942 151.018 84.2145 150.514 84.028C149.283 83.5431 147.717 83.8601 147.139 84.662C147.102 84.7179 147.064 84.7739 147.046 84.8485C146.766 84.9044 146.542 85.0163 146.43 85.1655C146.393 85.2214 146.356 85.296 146.374 85.3706C146.393 85.352 146.412 85.3333 146.449 85.3333C146.58 85.2587 146.747 85.2028 146.897 85.1841H146.915H146.971C146.971 85.2028 146.971 85.2214 146.971 85.2401L147.008 85.1841L147.027 85.1655L147.046 85.1468C147.064 85.1096 147.102 85.0909 147.12 85.0536C147.12 85.035 147.139 85.035 147.158 85.0163C147.176 84.9977 147.195 84.979 147.214 84.9604L147.251 84.9231L147.307 84.8671C147.325 84.8485 147.325 84.8485 147.344 84.8298C147.81 84.4382 148.575 84.2145 149.339 84.2145C149.787 84.2145 150.216 84.3077 150.626 84.4569C150.663 84.4755 150.701 84.4942 150.738 84.4942L150.757 84.5128L150.831 84.5501L150.869 84.5688L150.925 84.6061L150.962 84.6247L151.018 84.662L151.055 84.6806C151.074 84.6993 151.092 84.6993 151.111 84.7179C151.13 84.7366 151.13 84.7366 151.13 84.7366C151.148 84.7552 151.186 84.7739 151.204 84.7925L151.242 84.8112C151.279 84.8298 151.316 84.8671 151.335 84.8858C151.372 84.9044 151.391 84.9417 151.428 84.9604C151.447 84.979 151.465 84.9977 151.465 85.0163C151.484 85.035 151.503 85.0536 151.521 85.0909C151.54 85.1095 151.54 85.1096 151.54 85.1282C151.559 85.1655 151.577 85.1841 151.614 85.2214C151.633 85.2401 151.633 85.2587 151.652 85.2774C151.652 85.2401 151.652 85.1841 151.633 85.1468C151.801 85.1468 151.969 85.1841 152.137 85.2401C152.174 85.2587 152.193 85.2587 152.23 85.2774L152.267 85.296L152.323 85.3147L152.36 85.3333C152.342 85.296 152.36 85.3147 152.398 85.3333ZM152.808 86.0419C152.827 86.0606 152.845 86.0606 152.864 86.0792C152.864 85.8555 152.677 85.6503 152.304 85.5198C152.062 85.4452 151.82 85.4079 151.577 85.4079C151.335 85.1282 151.018 84.9231 150.663 84.7925C149.321 84.2704 147.624 84.5874 146.953 85.4452C146.505 85.4825 146.151 85.6317 145.983 85.8555C145.927 85.9301 145.908 86.0046 145.908 86.0979C145.927 86.0792 145.964 86.0606 145.983 86.0419C146.001 86.0233 146.039 86.0046 146.076 86.0046C146.113 85.986 146.132 85.986 146.169 85.9674C146.207 85.9487 146.244 85.9487 146.263 85.9301H146.281C146.318 85.9114 146.356 85.9114 146.393 85.8928C146.468 85.8741 146.542 85.8555 146.617 85.8555H146.635L146.729 85.8368C146.691 85.9487 146.673 86.0419 146.673 86.1538C146.673 86.1352 146.691 86.1165 146.691 86.1165L146.71 86.0792C146.71 86.0792 146.71 86.0792 146.71 86.0606C146.729 86.0419 146.747 86.0233 146.747 85.986C146.803 85.9114 146.859 85.8555 146.915 85.7809L146.971 85.7249C146.99 85.7063 147.008 85.6876 147.027 85.669C147.046 85.6503 147.064 85.6317 147.083 85.613L147.139 85.5757C147.158 85.5571 147.195 85.5385 147.214 85.5198L147.251 85.4825L147.344 85.4266C147.866 85.1096 148.556 84.9417 149.265 84.9417C149.75 84.9417 150.235 85.035 150.682 85.2028L150.719 85.2214L150.813 85.2587L150.869 85.2774C150.887 85.2774 150.906 85.296 150.925 85.3147C150.943 85.3333 150.962 85.3333 150.98 85.3333L151.036 85.352L151.092 85.3706L151.13 85.3893C151.167 85.4079 151.223 85.4452 151.26 85.4639C151.335 85.5012 151.391 85.5571 151.465 85.613L151.521 85.669C151.54 85.6876 151.559 85.7063 151.596 85.7249L151.633 85.7809L151.652 85.7995C151.67 85.8182 151.67 85.8368 151.689 85.8555C151.708 85.8741 151.708 85.8741 151.708 85.8741L151.745 85.9301L151.764 85.9487L151.801 86.0046L151.82 86.0233C151.838 86.0419 151.838 86.0606 151.857 86.0792C151.876 86.0979 151.876 86.1165 151.894 86.1352C151.894 86.0047 151.876 85.8555 151.82 85.7249C152.062 85.7249 152.304 85.7622 152.528 85.8368H152.547C152.584 85.8555 152.621 85.8555 152.64 85.8741L152.696 85.8928L152.752 85.9114C152.771 85.9301 152.789 85.9301 152.808 85.9487V86.0419ZM153.386 87.0676C153.442 86.7879 153.237 86.5268 152.752 86.359C152.435 86.2657 152.099 86.2098 151.764 86.2284C151.503 85.9674 151.167 85.7436 150.813 85.613C149.377 85.0536 147.568 85.3706 146.803 86.2471C146.225 86.2657 145.703 86.4336 145.498 86.7319C145.423 86.8252 145.386 86.9557 145.423 87.0862C145.442 87.0676 145.479 87.0489 145.517 87.0303C145.666 86.937 145.815 86.8811 145.983 86.8252C146.02 86.8065 146.076 86.8065 146.113 86.7879C146.207 86.7692 146.3 86.7506 146.412 86.7506C146.449 86.7506 146.468 86.7506 146.505 86.7506C146.468 86.8625 146.449 86.9743 146.449 87.0862C146.486 87.0303 146.524 86.9557 146.561 86.8998C146.598 86.8438 146.654 86.7692 146.71 86.7133C146.747 86.676 146.766 86.6387 146.803 86.62L146.841 86.6014C146.878 86.5641 146.915 86.5454 146.953 86.5081L146.99 86.4895C147.027 86.4522 147.064 86.4336 147.102 86.3963L147.139 86.3776C147.176 86.359 147.214 86.3217 147.27 86.303C147.829 85.9674 148.575 85.7809 149.358 85.7995C149.899 85.7995 150.421 85.8928 150.925 86.0792C150.962 86.0979 151.018 86.1165 151.055 86.1352L151.074 86.1538C151.111 86.1725 151.148 86.1911 151.167 86.1911L151.204 86.2098L151.279 86.2471L151.316 86.2657L151.353 86.2844C151.465 86.3403 151.559 86.4149 151.652 86.4895C151.689 86.5268 151.726 86.5641 151.782 86.5827H151.801C151.838 86.62 151.876 86.6573 151.913 86.6946L151.969 86.7506L151.987 86.7692C152.006 86.7879 152.025 86.8065 152.025 86.8252L152.043 86.8438L152.081 86.8998L152.099 86.9184C152.118 86.937 152.118 86.9557 152.137 86.9743L152.155 86.993C152.174 87.0116 152.193 87.0489 152.193 87.0676C152.193 86.9184 152.155 86.7879 152.099 86.6387C152.398 86.6387 152.696 86.676 152.994 86.7692C153.032 86.7879 153.088 86.8065 153.125 86.8252C153.162 86.8438 153.2 86.8625 153.237 86.8811C153.274 86.8998 153.311 86.9184 153.33 86.937C153.367 86.9557 153.386 86.9743 153.423 86.993M153.834 88.0932C153.945 87.7762 153.703 87.4405 153.125 87.2541C152.808 87.1608 152.472 87.1049 152.118 87.1235C152.211 87.2914 152.249 87.4965 152.249 87.683C152.043 87.2541 151.596 86.8438 150.906 86.5827C149.246 85.9301 147.139 86.359 146.374 87.4405C146.337 87.4965 146.3 87.5711 146.263 87.627C146.263 87.4592 146.3 87.31 146.356 87.1422C145.74 87.1795 145.218 87.3659 144.994 87.683C144.901 87.8135 144.864 87.9813 144.92 88.1305C144.957 88.1119 144.976 88.0746 145.013 88.0559C145.05 88.0373 145.088 88.0186 145.125 88H145.144C145.181 87.9813 145.218 87.9627 145.256 87.944H145.274C145.367 87.9067 145.442 87.8881 145.535 87.8508H145.554C145.591 87.8322 145.647 87.8321 145.703 87.8135H145.722C145.778 87.8135 145.815 87.7949 145.871 87.7949H145.89C145.983 87.7762 146.095 87.7762 146.207 87.7576H146.225C146.169 87.9067 146.132 88.0746 146.132 88.2424C146.151 88.2051 146.169 88.1678 146.188 88.1492C146.207 88.1119 146.225 88.0746 146.263 88.0373C146.635 87.4965 147.325 87.1235 148.109 86.937H148.127C148.202 86.9184 148.295 86.8998 148.37 86.8811C148.407 86.8811 148.444 86.8625 148.5 86.8625L148.668 86.8438C148.799 86.8252 148.948 86.8252 149.078 86.8252H149.116C149.75 86.8065 150.384 86.9184 150.98 87.1422C151.036 87.1608 151.074 87.1795 151.111 87.1981L151.148 87.2168L151.242 87.2541L151.297 87.2727C151.316 87.2914 151.353 87.2914 151.372 87.31L151.428 87.3473L151.484 87.3846L151.54 87.4219C151.559 87.4405 151.577 87.4405 151.596 87.4592L151.652 87.4965L151.708 87.5338L151.764 87.5711L151.801 87.6084L151.857 87.6457L151.876 87.6643C151.95 87.7203 152.025 87.7949 152.081 87.8694L152.099 87.8881C152.118 87.9067 152.137 87.9254 152.155 87.944L152.174 87.9627C152.193 87.9813 152.211 88 152.23 88.0186L152.249 88.0373C152.267 88.0559 152.286 88.0746 152.286 88.1119C152.286 88.1119 152.286 88.1305 152.304 88.1305C152.323 88.1492 152.323 88.1678 152.342 88.2051C152.342 88.2051 152.342 88.2051 152.342 88.2238C152.36 88.2424 152.36 88.2797 152.379 88.2983C152.379 88.0932 152.342 87.9067 152.267 87.7203H152.286C152.64 87.7016 153.013 87.7576 153.349 87.8694C153.386 87.8881 153.442 87.9067 153.479 87.9254H153.498C153.535 87.944 153.573 87.9627 153.61 87.9813L153.628 88C153.666 88.0186 153.703 88.0373 153.722 88.0559H153.74C153.778 88.0559 153.815 88.0746 153.834 88.0932ZM154.859 90.6107C154.952 90.2191 154.654 89.8461 153.983 89.6224C153.554 89.4918 153.106 89.4359 152.659 89.4545C152.659 89.268 152.64 89.0816 152.566 88.8951H152.621C153.013 88.8764 153.423 88.9324 153.796 89.0629C154.02 89.1375 154.225 89.2307 154.393 89.3799C154.486 89.0256 154.225 88.6713 153.61 88.4475C153.237 88.3356 152.827 88.2797 152.435 88.2983C152.528 88.4848 152.566 88.6713 152.566 88.8764C152.342 88.3916 151.857 87.944 151.074 87.6457C149.265 86.937 146.971 87.3846 146.151 88.5781C146.095 88.6527 146.039 88.7459 146.001 88.8205C146.001 88.6527 146.039 88.4848 146.113 88.3356C145.405 88.3543 144.771 88.5781 144.528 88.9324C144.435 89.0629 144.398 89.2494 144.435 89.3986L144.491 89.3613L144.51 89.3426L144.547 89.3053L144.566 89.2867L144.603 89.268L144.64 89.2494L144.677 89.2307L144.715 89.2121L144.752 89.1934L144.789 89.1748C144.808 89.1748 144.808 89.1562 144.827 89.1562L144.864 89.1375L144.901 89.1189L144.939 89.1002L144.976 89.0816L145.013 89.0629L145.069 89.0443C145.088 89.0443 145.088 89.0443 145.106 89.0256L145.162 89.007H145.2L145.274 88.9883H145.311L145.367 88.9697H145.405L145.461 88.951H145.498H145.554H145.591H145.647H145.703H145.759H145.815H145.871H145.927H145.946C145.871 89.1375 145.852 89.324 145.852 89.5105C145.032 89.5291 144.305 89.7715 144.025 90.1631C143.913 90.3123 143.876 90.4802 143.932 90.6666C143.969 90.6293 143.987 90.6107 144.025 90.592L144.043 90.5734L144.081 90.5548L144.099 90.5361L144.137 90.5175L144.174 90.4988C144.193 90.4988 144.211 90.4802 144.211 90.4802L144.249 90.4615L144.286 90.4429L144.323 90.4242L144.379 90.4056L144.416 90.3869L144.472 90.3683L144.51 90.3496L144.566 90.331L144.603 90.3123L144.659 90.2937L144.696 90.275L144.808 90.2377L144.864 90.2191L144.92 90.2004L144.976 90.1818L145.032 90.1631L145.088 90.1445H145.144H145.2H145.256H145.311H145.367H145.423H145.479H145.535H145.591H145.666H145.722C145.74 89.9394 145.778 89.7529 145.871 89.5664C145.908 89.4918 145.964 89.4172 146.001 89.3426C146.598 88.5035 147.904 88 149.283 88.0186C149.918 88.0186 150.533 88.1305 151.13 88.3543C151.186 88.3729 151.242 88.3916 151.279 88.4102L151.316 88.4289C151.353 88.4475 151.391 88.4662 151.428 88.4848L151.484 88.5035C151.521 88.5221 151.54 88.5408 151.577 88.5594L151.633 88.5781L151.708 88.6154L151.764 88.6527C151.782 88.6713 151.82 88.69 151.838 88.69L151.894 88.7272L151.95 88.7645L152.006 88.8018L152.062 88.8391L152.118 88.8764L152.155 88.9137C152.23 88.9697 152.304 89.0443 152.36 89.1189L152.379 89.1375C152.398 89.1562 152.416 89.1748 152.435 89.2121L152.454 89.2307L152.51 89.3053L152.528 89.324C152.547 89.3426 152.566 89.3799 152.566 89.3986L152.584 89.4172C152.603 89.4359 152.603 89.4545 152.621 89.4732V89.4918C152.621 89.4918 152.621 89.4918 152.621 89.5105C152.64 89.5291 152.64 89.5664 152.659 89.5851C152.733 89.7342 152.771 89.9021 152.789 90.0699C152.827 90.0699 152.883 90.0699 152.92 90.0699C153.367 90.0513 153.796 90.1258 154.207 90.2564C154.262 90.275 154.318 90.2937 154.393 90.3123H154.412L154.468 90.331L154.505 90.3496L154.542 90.3683L154.598 90.3869L154.617 90.4056C154.635 90.4242 154.654 90.4242 154.673 90.4429L154.691 90.4615C154.71 90.4802 154.729 90.4802 154.747 90.4988L154.766 90.5175C154.785 90.5361 154.803 90.5361 154.822 90.5548L154.841 90.5734L154.859 90.6107ZM155.381 92.1025C155.512 91.6736 155.195 91.2261 154.43 90.9837C153.945 90.8345 153.423 90.7785 152.901 90.7972C152.808 90.1072 152.23 89.4359 151.167 89.0256C149.228 88.2611 146.747 88.7645 145.852 90.0326C145.684 90.275 145.573 90.5361 145.554 90.8345C144.622 90.8345 143.801 91.0955 143.484 91.5617C143.353 91.7296 143.316 91.9533 143.391 92.1398L143.428 92.1025L143.447 92.0839C143.465 92.0652 143.465 92.0652 143.484 92.0466L143.521 92.0279L143.559 92.0093C143.577 92.0093 143.577 91.9906 143.596 91.9906L143.633 91.972L143.67 91.9533L143.708 91.9347L143.745 91.916L143.801 91.8974C143.82 91.8974 143.82 91.8787 143.838 91.8787L143.894 91.8601L143.932 91.8415L143.987 91.8228L144.025 91.8042L144.081 91.7855L144.137 91.7669C144.174 91.7482 144.211 91.7482 144.249 91.7296L144.305 91.7109L144.36 91.6923L144.416 91.6736L144.472 91.655L144.528 91.6363L144.584 91.6177L144.64 91.599H144.696H144.752H144.808H144.864H144.92H144.994H145.05H145.125H145.181H145.256H145.405C145.423 91.4126 145.479 91.2261 145.573 91.0582L145.591 91.0396C145.629 90.9836 145.647 90.9277 145.684 90.8718C145.703 90.8531 145.703 90.8345 145.722 90.8158C146.337 89.9394 147.642 89.4359 149.041 89.3986C149.787 89.3799 150.533 89.5105 151.223 89.7715L151.279 89.7902C151.316 89.8088 151.353 89.8275 151.391 89.8275L151.465 89.8648C151.484 89.8834 151.521 89.8834 151.54 89.9021C151.559 89.9207 151.596 89.9207 151.614 89.9394L151.689 89.9767L151.764 90.014L151.82 90.0513C151.838 90.0699 151.876 90.0885 151.894 90.1072L151.95 90.1445L152.025 90.2004L152.062 90.2377L152.137 90.2937L152.174 90.331L152.249 90.3869C152.249 90.3869 152.267 90.4056 152.286 90.4056L152.36 90.4802L152.379 90.4988C152.398 90.5175 152.435 90.5547 152.454 90.5734C152.528 90.6666 152.621 90.7599 152.677 90.8531C152.696 90.8718 152.696 90.8904 152.715 90.9091C152.715 90.9277 152.733 90.9277 152.733 90.9464C152.752 90.965 152.771 91.0023 152.771 91.0209C152.771 91.0396 152.789 91.0396 152.789 91.0582C152.789 91.0769 152.808 91.0955 152.808 91.1142L152.827 91.1515C152.883 91.282 152.938 91.4312 152.957 91.5804C153.517 91.5431 154.057 91.599 154.58 91.7669C154.617 91.7855 154.654 91.7855 154.691 91.8042H154.71C154.747 91.8228 154.766 91.8228 154.803 91.8415H154.822L154.897 91.8787H154.915C154.934 91.8974 154.971 91.8974 154.99 91.916C155.008 91.9347 155.046 91.9533 155.064 91.9533C155.083 91.972 155.12 91.9906 155.139 92.0093C155.307 92.0279 155.344 92.0652 155.381 92.1025ZM155.885 93.7435C156.109 93.24 155.773 92.7179 154.897 92.4195C154.337 92.2517 153.759 92.1771 153.181 92.2331C153.069 91.5058 152.454 90.8158 151.335 90.3683C149.246 89.5478 146.598 90.0885 145.647 91.4498C145.479 91.6923 145.367 91.972 145.33 92.2704C144.305 92.2704 143.372 92.5501 143.018 93.0536C142.85 93.2587 142.831 93.5384 142.943 93.7808C142.98 93.7435 143.036 93.7062 143.074 93.669L143.13 93.6317L143.148 93.613L143.204 93.5757L143.242 93.5571C143.26 93.5384 143.279 93.5384 143.298 93.5198L143.335 93.5011L143.391 93.4638L143.428 93.4452L143.484 93.4265L143.521 93.4079L143.596 93.3892L143.633 93.3706L143.708 93.3519L143.745 93.3333L143.82 93.3146H143.838C143.894 93.296 143.969 93.2774 144.025 93.2587H144.043L144.118 93.2401L144.174 93.2214L144.249 93.2028L144.305 93.1841L144.379 93.1655H144.435H144.51H144.566H144.64H144.715C144.733 93.1655 144.752 93.1655 144.789 93.1655H144.864H144.92H144.994H145.05H145.181C145.2 92.8484 145.293 92.5314 145.479 92.2704L145.517 92.2144C146.207 91.2447 147.698 90.6853 149.283 90.7039C149.339 90.7039 149.395 90.7039 149.451 90.7039H149.507C150.16 90.7226 150.794 90.8718 151.409 91.0955C151.465 91.1142 151.54 91.1515 151.596 91.1701L151.652 91.1888L151.782 91.2447L151.838 91.282C151.876 91.3007 151.913 91.3193 151.932 91.338L151.987 91.3753L152.081 91.4312L152.137 91.4685C152.155 91.4871 152.193 91.5058 152.211 91.5244L152.267 91.5617L152.342 91.6177L152.398 91.6736L152.454 91.7296L152.51 91.7855L152.566 91.8415L152.621 91.8974L152.677 91.9347L152.733 91.9906L152.771 92.0279C152.789 92.0466 152.808 92.0652 152.827 92.0839L152.864 92.1212C152.883 92.1398 152.901 92.1771 152.92 92.1958L152.938 92.2144C152.957 92.2331 152.976 92.2704 152.994 92.289C153.013 92.3077 153.013 92.3263 153.032 92.3449C153.05 92.3636 153.05 92.3822 153.069 92.4009C153.088 92.4195 153.088 92.4382 153.106 92.4568L153.125 92.5128L153.144 92.5687C153.144 92.5874 153.162 92.606 153.162 92.6247C153.237 92.7925 153.293 92.979 153.311 93.1655C153.461 93.1655 153.628 93.1468 153.778 93.1468C154.225 93.1468 154.673 93.2214 155.102 93.3519C155.176 93.3706 155.232 93.3892 155.288 93.4265L155.325 93.4452L155.381 93.4638L155.437 93.4825L155.475 93.5011C155.493 93.5198 155.512 93.5198 155.531 93.5384L155.549 93.5571L155.624 93.5944L155.642 93.613C155.661 93.6317 155.68 93.6503 155.717 93.6503H155.736L155.792 93.7063H155.81L155.885 93.7435ZM156.407 95.571C156.612 95.0489 156.239 94.5081 155.307 94.1911C154.691 94.0046 154.057 93.93 153.423 93.9673C153.349 93.1655 152.677 92.3822 151.447 91.8974C149.228 91.0209 146.393 91.5804 145.367 93.0536C145.162 93.3333 145.05 93.669 145.013 94.0046C143.876 93.986 142.85 94.303 142.477 94.8624C142.309 95.0675 142.272 95.3659 142.384 95.6083L142.44 95.5524C142.608 95.4219 142.775 95.31 142.98 95.2354C143.018 95.2167 143.036 95.2167 143.074 95.1981H143.092L143.186 95.1608H143.204L143.298 95.1235H143.335L143.428 95.1048H143.465C143.503 95.1048 143.521 95.0862 143.559 95.0862H143.596L143.689 95.0675H143.726C143.764 95.0675 143.782 95.0489 143.82 95.0489H143.857L143.95 95.0303H144.006L144.099 95.0116H144.137C144.267 94.993 144.379 94.993 144.51 94.9743H144.528H144.622H144.677H144.901C144.92 94.7505 144.976 94.5268 145.069 94.3216C145.106 94.247 145.144 94.1724 145.181 94.1165C145.2 94.0792 145.218 94.0606 145.237 94.0233C146.3 92.5128 149.209 91.9347 151.503 92.8298C152.379 93.1655 152.976 93.669 153.293 94.2097C153.311 94.247 153.33 94.2843 153.349 94.3216C153.349 94.3216 153.349 94.3403 153.367 94.3403C153.386 94.3589 153.386 94.3962 153.405 94.4335C153.479 94.6014 153.517 94.7692 153.535 94.9557C153.647 94.9557 153.759 94.937 153.852 94.937C154.412 94.9184 154.971 94.993 155.493 95.1608C155.549 95.1794 155.587 95.1981 155.624 95.2167L155.642 95.2354L155.736 95.2727L155.773 95.2913L155.848 95.3286L155.885 95.3473L155.959 95.3846L155.997 95.4032L156.071 95.4405L156.109 95.4592C156.127 95.4778 156.146 95.4965 156.183 95.4965L156.202 95.5151C156.221 95.5337 156.258 95.5524 156.276 95.571L156.295 95.5897C156.351 95.5338 156.388 95.5524 156.407 95.571ZM156.911 97.3612C157.116 96.8018 156.724 96.2237 155.736 95.9067C155.064 95.7016 154.374 95.627 153.684 95.6829C153.591 94.8251 152.883 94.0046 151.577 93.5011C149.209 92.5687 146.188 93.1655 145.106 94.7319C144.883 95.0303 144.771 95.3659 144.733 95.7389C143.503 95.7202 142.402 96.0559 141.992 96.6526C141.824 96.8764 141.787 97.1748 141.88 97.4172C141.918 97.3799 141.955 97.3426 142.011 97.3053L142.029 97.2867C142.048 97.268 142.067 97.268 142.085 97.2494L142.123 97.2307L142.179 97.1934L142.216 97.1748L142.272 97.1375L142.309 97.1188C142.328 97.1002 142.346 97.1002 142.365 97.0815L142.402 97.0629C142.496 97.0256 142.589 96.9883 142.663 96.951H142.682L142.757 96.9137L142.794 96.8951L142.869 96.8764L142.906 96.8578L142.999 96.8391L143.036 96.8205L143.13 96.8018H143.167C143.316 96.7645 143.484 96.7272 143.652 96.7086H143.67L143.782 96.6899H143.801L143.913 96.6713H143.932H144.062H144.081C144.267 96.6526 144.435 96.6526 144.622 96.6526C144.659 96.4848 144.696 96.3356 144.771 96.1864C144.827 96.0559 144.901 95.9254 144.994 95.8135C146.113 94.2097 149.209 93.5944 151.652 94.5454C152.491 94.8811 153.088 95.3286 153.442 95.8321C153.461 95.8508 153.461 95.8694 153.479 95.8694C153.498 95.9067 153.517 95.9254 153.535 95.9627L153.554 96.0186C153.573 96.0372 153.591 96.0745 153.591 96.0932C153.61 96.1118 153.61 96.1305 153.61 96.1491L153.647 96.2051C153.703 96.3356 153.74 96.4661 153.778 96.5967C153.796 96.5967 153.796 96.5967 153.815 96.5967H153.871H154.039H154.095C154.151 96.5967 154.207 96.5967 154.263 96.5967C154.281 96.5967 154.318 96.5967 154.337 96.5967C154.393 96.5967 154.43 96.5967 154.486 96.5967H154.561H154.691H154.785L154.915 96.6153L155.008 96.634L155.12 96.6526L155.232 96.6713L155.344 96.6899L155.475 96.7086L155.568 96.7272C155.624 96.7459 155.661 96.7459 155.717 96.7645L155.773 96.7832C155.848 96.8018 155.904 96.8205 155.978 96.8391H155.997C156.034 96.8578 156.09 96.8764 156.127 96.8951C156.146 96.8951 156.165 96.9137 156.183 96.9137C156.221 96.9323 156.239 96.9323 156.276 96.951L156.332 96.9696L156.407 97.0069L156.444 97.0256L156.519 97.0629L156.556 97.0815C156.593 97.1002 156.612 97.1188 156.649 97.1375L156.668 97.1561C156.743 97.2121 156.836 97.2867 156.911 97.3612ZM150.179 96.0186H150.123H150.141H150.179ZM149.955 95.9813H149.899H149.918H149.955ZM149.545 95.944H149.47H149.526H149.545ZM148.053 96.0186C147.997 96.0186 147.922 96.0372 147.866 96.0559C147.904 96.0559 147.959 96.0372 147.997 96.0372H148.015C148.034 96.0186 148.034 96.0186 148.053 96.0186ZM157.395 99.3939C157.638 98.7785 157.228 98.1631 156.146 97.8088C155.419 97.585 154.654 97.5104 153.89 97.585C153.703 96.7645 152.957 95.9813 151.689 95.4778C149.172 94.4895 146.001 95.1235 144.845 96.7832C144.659 97.0442 144.528 97.324 144.472 97.641C143.148 97.6037 141.936 97.958 141.489 98.6107C141.302 98.8531 141.265 99.1887 141.395 99.4685C141.955 98.909 143.092 98.6107 144.342 98.648C144.379 98.4988 144.416 98.3496 144.472 98.219C144.491 98.1818 144.51 98.1258 144.528 98.0885L144.547 98.0512C144.566 98.0139 144.584 97.9953 144.603 97.958L144.622 97.9207C144.64 97.8834 144.677 97.8274 144.715 97.7901C144.752 97.7529 144.771 97.7156 144.808 97.6596L144.864 97.6037C144.883 97.5664 144.92 97.5291 144.957 97.5104C144.994 97.4545 145.05 97.4172 145.106 97.3612C145.162 97.3053 145.2 97.268 145.256 97.2121L145.293 97.1748C145.33 97.1375 145.367 97.1188 145.405 97.0815L145.442 97.0442C145.498 97.0069 145.535 96.9696 145.591 96.9323C145.647 96.895 145.684 96.8764 145.722 96.8391C145.759 96.8205 145.796 96.8018 145.834 96.7645L145.852 96.7459H145.871C145.927 96.7086 145.964 96.6899 146.02 96.6526C146.076 96.6153 146.151 96.578 146.225 96.5594C146.3 96.5221 146.356 96.5034 146.43 96.4661C146.505 96.4288 146.58 96.4102 146.635 96.3729C146.878 96.2797 147.139 96.2051 147.4 96.1305L147.493 96.1118C147.568 96.0932 147.661 96.0745 147.736 96.0559L147.792 96.0372C147.866 96.0186 147.959 95.9999 148.034 95.9999C148.109 95.9813 148.183 95.9813 148.277 95.9627H148.332L148.519 95.944L148.351 95.9627L148.538 95.944H148.519H148.594H148.556L148.724 95.9254H148.78H148.817H148.78H148.855H148.817H148.948C149.022 95.9254 149.116 95.9254 149.19 95.9254C149.265 95.9254 149.358 95.9254 149.433 95.9254H149.545L149.768 95.944H149.787H149.768H149.787H149.824H149.787L149.973 95.9627L150.067 95.9813L150.141 95.9999L150.216 96.0186L150.328 96.0372C150.44 96.0559 150.533 96.0745 150.645 96.0932H150.626H150.663C150.701 96.0932 150.738 96.1118 150.775 96.1118L150.869 96.1305C150.794 96.1118 150.719 96.0932 150.663 96.0745C150.738 96.0932 150.813 96.1118 150.887 96.1305C150.962 96.1491 151.036 96.1678 151.111 96.1864L151.148 96.2051C151.223 96.2237 151.297 96.2424 151.372 96.2797L151.465 96.317C151.503 96.3356 151.54 96.3356 151.577 96.3543H151.596C151.54 96.3356 151.503 96.317 151.447 96.2983C151.54 96.3356 151.633 96.3543 151.708 96.3916L151.745 96.4102C151.801 96.4289 151.876 96.4661 151.932 96.4848L152.043 96.5407L152.099 96.578L152.193 96.6153L152.23 96.634H152.211L152.23 96.6526H152.249L152.23 96.634L152.267 96.6526L152.323 96.6713L152.416 96.7272L152.36 96.6899H152.379L152.454 96.7272L152.435 96.7086L152.472 96.7272L152.491 96.7459C152.51 96.7645 152.547 96.7645 152.566 96.7832L152.528 96.7645L152.547 96.7832L152.584 96.8018L152.547 96.7832L152.621 96.8205H152.603H152.621H152.64H152.621L152.696 96.8764L152.677 96.8578L152.715 96.8764L152.733 96.8951L152.696 96.8764L152.771 96.9323L152.733 96.8951L152.789 96.9323H152.808L152.789 96.9137L152.845 96.951C152.845 96.951 152.845 96.951 152.864 96.951L152.957 97.0069L152.901 96.951C152.901 96.951 152.92 96.951 152.92 96.9696L152.976 97.0069L152.994 97.0256L153.032 97.0629C153.069 97.1002 153.106 97.1188 153.144 97.1561C153.106 97.1188 153.069 97.1002 153.032 97.0629C153.05 97.0629 153.05 97.0815 153.069 97.0815C153.088 97.1002 153.106 97.1188 153.144 97.1375C153.162 97.1561 153.2 97.1748 153.218 97.1934C153.237 97.2121 153.256 97.2307 153.274 97.2494L153.349 97.3053L153.405 97.3612L153.461 97.4172C153.479 97.4358 153.498 97.4545 153.517 97.4731L153.535 97.5104C153.778 97.7901 153.945 98.1258 154.039 98.4801C154.859 98.4055 155.68 98.4801 156.37 98.7225C156.836 98.965 157.172 99.1701 157.395 99.3939ZM157.88 101.557C158.235 100.867 157.824 100.158 156.612 99.7482C155.848 99.4871 154.915 99.4312 154.02 99.5244C154.001 99.5803 153.983 99.6176 153.964 99.6736C153.945 99.7295 153.927 99.7668 153.908 99.8228C153.89 99.8787 153.852 99.9347 153.834 99.9906C153.815 100.028 153.796 100.047 153.778 100.084C153.759 100.121 153.722 100.158 153.703 100.196L153.684 100.214C153.628 100.289 153.591 100.345 153.535 100.42C153.498 100.475 153.461 100.513 153.405 100.569C153.367 100.606 153.311 100.662 153.274 100.699C153.218 100.755 153.144 100.811 153.088 100.867H153.069L153.032 100.904C153.013 100.923 152.976 100.942 152.957 100.96L152.976 100.942C154.207 100.587 155.68 100.569 156.836 100.942C157.283 101.128 157.638 101.315 157.88 101.557ZM154.151 103.068L154.3 103.049L154.151 103.068ZM154.113 103.068L153.945 103.086L154.113 103.068ZM157.022 102.116C155.792 101.706 154.169 101.762 152.883 102.154C152.342 102.34 151.745 102.359 151.186 102.21C151.036 102.172 150.906 102.116 150.775 102.023C150.757 102.042 150.738 102.061 150.719 102.061C150.701 102.079 150.682 102.098 150.663 102.116C150.645 102.135 150.626 102.154 150.608 102.191V102.21C150.589 102.228 150.57 102.247 150.552 102.284V102.303C150.533 102.322 150.533 102.34 150.514 102.378C150.496 102.396 150.496 102.433 150.477 102.452C150.458 102.489 150.458 102.508 150.458 102.545C150.458 102.564 150.458 102.583 150.458 102.601V102.62C150.458 102.657 150.458 102.695 150.477 102.732V102.751C150.477 102.769 150.496 102.788 150.496 102.806C150.514 102.844 150.514 102.862 150.533 102.881C150.552 102.918 150.57 102.937 150.589 102.956C150.608 102.974 150.608 102.993 150.626 103.012L150.645 103.03C150.682 103.068 150.719 103.105 150.757 103.123L150.775 103.142C150.794 103.161 150.813 103.179 150.831 103.179C150.85 103.198 150.887 103.217 150.925 103.235H150.943L151.036 103.273C151.074 103.291 151.092 103.291 151.13 103.31H151.148C151.186 103.329 151.223 103.329 151.26 103.347C151.409 103.385 151.54 103.422 151.689 103.44C151.745 103.44 151.782 103.459 151.838 103.459H151.876C151.932 103.459 151.969 103.459 152.025 103.459C152.081 103.459 152.118 103.459 152.155 103.459H152.174H152.193H152.286H152.323L152.416 103.44H152.454C152.491 103.44 152.547 103.422 152.584 103.422C152.733 103.403 152.864 103.366 152.994 103.31C153.088 103.273 153.181 103.254 153.293 103.235H153.311C153.405 103.217 153.517 103.179 153.61 103.161L153.684 103.142C153.759 103.123 153.852 103.105 153.927 103.105H153.945H153.983L154.095 103.086H154.132C154.188 103.086 154.244 103.068 154.3 103.068C154.393 103.049 154.468 103.049 154.561 103.049L154.71 103.03H154.822H154.915H155.064H155.176H155.344H155.456C155.512 103.03 155.568 103.03 155.624 103.03H155.717C155.773 103.03 155.829 103.03 155.885 103.049H155.959C156.053 103.049 156.127 103.068 156.221 103.086C156.407 103.105 156.575 103.142 156.743 103.179C156.911 103.217 157.078 103.254 157.228 103.31C157.283 103.329 157.358 103.347 157.414 103.366L157.451 103.385L157.582 103.44L157.638 103.459C157.675 103.478 157.712 103.496 157.768 103.515L157.806 103.534C157.843 103.552 157.88 103.571 157.917 103.59L157.955 103.608C157.992 103.627 158.048 103.664 158.085 103.683C158.123 103.702 158.141 103.72 158.16 103.739C158.197 103.757 158.216 103.776 158.253 103.813L158.272 103.832C158.29 103.851 158.328 103.869 158.346 103.888C158.365 103.907 158.402 103.925 158.421 103.963C158.701 103.217 158.253 102.508 157.022 102.116Z" fill="black"/>
<path d="M148.629 60.5874C147.883 60.5874 147.286 60.3636 146.801 59.9347C146.317 59.5058 146.074 58.9464 146.074 58.2751C146.074 57.6037 146.317 57.0443 146.801 56.634C147.286 56.2238 147.883 56 148.629 56C149.394 56 150.009 56.2051 150.475 56.634C150.941 57.0629 151.184 57.6037 151.184 58.2751C151.184 58.9464 150.941 59.5058 150.475 59.9347C150.009 60.3636 149.394 60.5874 148.629 60.5874Z" fill="black"/>
<rect x="0.5" y="0.5" width="335" height="159" rx="13.5" stroke="white" stroke-opacity="0.25"/>
</svg>
