<svg width="336" height="160" viewBox="0 0 336 160" fill="none" xmlns="http://www.w3.org/2000/svg">
<path fill-rule="evenodd" clip-rule="evenodd" d="M74.1621 79.4026V73.3259H79.899C82.403 73.3259 83.812 74.4742 83.812 76.1767V76.2215C83.812 78.0303 82.5121 79.1188 80.5976 79.3545V80.4845C83.2494 80.6389 84.6853 81.7125 84.6853 83.4698V83.5129C84.6853 85.4578 82.984 86.6725 80.3004 86.6725H74.1621V80.463V79.4026ZM82.3358 79.7793C83.6105 79.2698 84.9976 78.2095 84.9976 76.1103V76.0655C84.9976 73.7457 82.9622 72.2655 79.9208 72.2655H73V87.7345H80.2567C83.634 87.7345 85.8709 86.0983 85.8709 83.5129V83.4698C85.8709 81.3259 84.2134 80.2655 82.3358 79.7793ZM250.254 87.7345V72.2655H262.063V75.2923H253.677V78.4302H261.056V81.4586H253.677V84.7061H262.174V87.7345H250.254ZM239.138 88C234.263 88 230.909 84.6181 230.909 80.0431V79.9983C230.909 75.6009 234.375 72 239.118 72C241.934 72 243.634 72.7517 245.268 74.1207L243.098 76.7061C241.89 75.7121 240.816 75.1379 239.005 75.1379C236.5 75.1379 234.51 77.325 234.51 79.9552V79.9983C234.51 82.8276 236.476 84.9052 239.252 84.9052C240.503 84.9052 241.622 84.5966 242.493 83.9776V81.7673H239.027V78.8284H245.827V85.5457C244.216 86.8948 242.001 88 239.138 88ZM223.797 87.7345L216.214 77.9009V87.7345H212.817V72.2655H215.991L223.326 81.7888V72.2655H226.727V87.7345H223.797ZM203.021 81.2595L200.938 76.2431L198.859 81.2595H203.021ZM198.859 81.2595L196.197 87.7345H192.686L199.395 72.1543H202.572L209.282 87.7345H205.681L203.021 81.2595H198.859ZM185.71 87.7345V81.5233H179.358V87.7345H175.914V72.2655H179.358V78.3871H185.71V72.2655H189.154V87.7345H185.71ZM165.626 88C161.017 88 157.596 84.4854 157.596 80.0431V79.9983C157.596 75.6009 160.95 72 165.758 72C168.712 72 170.479 72.9724 171.932 74.3862L169.74 76.8836C168.533 75.8 167.302 75.1379 165.736 75.1379C163.098 75.1379 161.195 77.3034 161.195 79.9552V79.9983C161.195 82.6517 163.053 84.8621 165.736 84.8621C167.527 84.8621 168.622 84.1535 169.853 83.0483L172.043 85.2371C170.434 86.9396 168.645 88 165.626 88ZM143.704 82.431V87.7345H142.542V72.2655H143.704V82.431ZM152.765 72.2655H154.353L147.51 79.0923L154.644 87.7345H153.124L146.034 79.1255L152.765 72.2655ZM132.007 88C127.533 88 124.225 84.4854 124.225 80.0431V79.9983C124.225 75.6241 127.533 72 132.053 72C134.849 72 136.525 73.0156 138.136 74.4742L137.309 75.3138C135.944 74.0095 134.377 73.0388 132.029 73.0388C128.272 73.0388 125.431 76.0655 125.431 79.9552V79.9983C125.431 83.9112 128.318 86.9612 132.053 86.9612C134.31 86.9612 135.853 86.0983 137.442 84.5517L138.225 85.3035C136.57 86.9164 134.782 88 132.007 88ZM118.633 79.9983C118.633 76.1767 115.816 73.0388 111.947 73.0388C108.076 73.0388 105.303 76.1319 105.303 79.9552V79.9983C105.303 83.8233 108.121 86.9612 111.991 86.9612C115.86 86.9612 118.633 83.8664 118.633 80.0431V79.9983ZM111.947 88C107.204 88 104.096 84.2647 104.096 80.0431V79.9983C104.096 75.7785 107.25 72 111.991 72C116.733 72 119.84 75.7353 119.84 79.9552C119.864 79.9768 119.864 79.9768 119.84 79.9983C119.84 84.2199 116.688 88 111.947 88ZM90.7227 87.7345V72.2655H91.8865V86.6725H101.078V87.7345H90.7227Z" fill="black"/>
<rect x="0.5" y="0.5" width="335" height="159" rx="13.5" stroke="white" stroke-opacity="0.25"/>
</svg>
