<svg width="336" height="160" viewBox="0 0 336 160" fill="none" xmlns="http://www.w3.org/2000/svg">
<path d="M143.076 62C142.642 62 142.202 62.012 141.767 62.0432C138.684 62.2548 135.707 63.2569 133.123 64.9528C130.539 66.6487 128.435 68.9813 127.015 71.7261C125.594 74.4708 124.904 77.5352 125.011 80.624C125.118 83.7129 126.018 86.7221 127.626 89.3619C129.233 92.0016 131.493 94.1831 134.189 95.696C136.884 97.2089 139.923 98.0024 143.013 98C146.104 97.9976 149.142 97.1994 151.835 95.6823C154.528 94.1652 156.784 91.9803 158.388 89.338H173.646L176.836 97.1341H183.53L186.72 89.338H201.897L205.14 97.1341H211.507L197.125 62.5381H191.326L180.19 89.7921L169.04 62.531H163.245L154.075 84.4081C151.06 91.5988 142.855 93.9004 136.957 90.496C135.578 89.7008 134.37 88.6418 133.4 87.3794C132.43 86.117 131.719 84.6761 131.306 83.1387C130.473 80.0339 130.907 76.7252 132.513 73.9404C134.119 71.1556 136.765 69.1228 139.87 68.2893C142.975 67.4558 146.284 67.8898 149.068 69.4958C149.445 69.7164 149.81 69.957 150.161 70.2165L152.691 64.8085C152.47 64.6668 152.237 64.5394 152.009 64.4073C149.295 62.8327 146.214 62.0023 143.076 62V62ZM166.121 70.9421L171.236 83.4543H160.92L166.121 70.9421ZM194.247 70.9421L199.449 83.4543H189.132L194.247 70.9421Z" fill="black"/>
<rect x="0.5" y="0.5" width="335" height="159" rx="13.5" stroke="white" stroke-opacity="0.25"/>
</svg>
