<svg width="336" height="160" viewBox="0 0 336 160" fill="none" xmlns="http://www.w3.org/2000/svg">
<path d="M126.909 73.9795C121.885 73.9795 117.96 77.839 117.96 83.0056C117.96 88.1723 121.786 91.9987 126.909 91.9987C132.031 91.9987 135.924 88.1063 135.924 82.9726C135.924 77.872 132.098 73.9795 126.909 73.9795ZM126.943 88.2752C124.082 88.2752 121.986 86.0266 121.986 83.0069C121.986 79.9529 124.048 77.7056 126.909 77.7056C129.803 77.7056 131.898 79.9872 131.898 83.0069C131.898 86.0266 129.803 88.2752 126.943 88.2752ZM137.021 77.9063H139.516V91.6646H143.508V74.3149H137.021V77.9063ZM107.915 77.7043C110.011 77.7043 111.674 79.0128 112.305 80.959H116.531C115.765 76.7985 112.372 73.9795 107.949 73.9795C102.925 73.9795 99 77.839 99 83.0069C99 88.1749 102.826 92 107.949 92C112.273 92 115.732 89.181 116.498 84.9862H112.305C111.707 86.9324 110.044 88.2752 107.947 88.2752C105.053 88.2752 103.024 86.0266 103.024 83.0069C103.026 79.9529 105.021 77.7043 107.915 77.7043ZM212.864 81.3287L209.937 80.893C208.54 80.6923 207.542 80.2222 207.542 79.1144C207.542 77.9063 208.84 77.3029 210.603 77.3029C212.532 77.3029 213.763 78.1413 214.029 79.5172H217.888C217.455 76.0274 214.794 73.9808 210.703 73.9808C206.478 73.9808 203.684 76.1621 203.684 79.2491C203.684 82.2015 205.514 83.914 209.205 84.4501L212.133 84.8858C213.564 85.0865 214.362 85.6582 214.362 86.7317C214.362 88.1075 212.965 88.6779 211.036 88.6779C208.673 88.6779 207.343 87.7048 207.143 86.2286H203.218C203.585 89.618 206.212 92 211.002 92C215.36 92 218.253 89.9864 218.253 86.5297C218.253 83.4427 216.158 81.8318 212.864 81.3287ZM141.512 67.1677C140.049 67.1677 138.95 68.2412 138.95 69.7174C138.95 71.1936 140.047 72.267 141.512 72.267C142.976 72.267 144.074 71.1936 144.074 69.7174C144.074 68.2412 142.976 67.1677 141.512 67.1677ZM200.091 80.2552C200.091 76.4974 197.829 73.9808 193.039 73.9808C188.516 73.9808 185.987 76.2967 185.488 79.8538H189.447C189.646 78.478 190.711 77.3372 192.973 77.3372C195.003 77.3372 196 78.243 196 79.3507C196 80.7939 194.17 81.1623 191.908 81.3973C188.848 81.7327 185.056 82.8062 185.056 86.8333C185.056 89.9547 187.352 91.967 191.011 91.967C193.872 91.967 195.668 90.7588 196.567 88.8456C196.7 90.5568 197.964 91.6646 199.727 91.6646H202.056V88.0745H200.093V80.2552H200.091ZM196.166 84.6178C196.166 86.9337 194.17 88.6449 191.741 88.6449C190.244 88.6449 188.98 88.0072 188.98 86.6656C188.98 84.9544 191.01 84.4844 192.872 84.2837C194.669 84.116 195.667 83.7132 196.166 82.9409V84.6178ZM174.977 73.9795C172.747 73.9795 170.885 74.9196 169.554 76.4962V67H165.562V91.6646H169.487V89.383C170.818 91.0269 172.715 92 174.977 92C179.767 92 183.393 88.1749 183.393 83.0069C183.393 77.839 179.7 73.9795 174.977 73.9795ZM174.378 88.2752C171.517 88.2752 169.421 86.0266 169.421 83.0069C169.421 79.9872 171.55 77.7056 174.411 77.7056C177.305 77.7056 179.334 79.9542 179.334 83.0069C179.334 86.0266 177.239 88.2752 174.378 88.2752ZM156.015 73.9795C153.421 73.9795 151.723 75.053 150.726 76.5635V74.3149H146.767V91.6633H150.758V82.2345C150.758 79.5832 152.421 77.7043 154.883 77.7043C157.179 77.7043 158.608 79.3482 158.608 81.7314V91.6646H162.6V81.4304C162.601 77.0666 160.373 73.9795 156.015 73.9795ZM237.281 82.4365C237.281 77.4706 233.689 73.9808 228.865 73.9808C223.742 73.9808 219.983 77.8733 219.983 83.0069C219.983 88.4099 224.008 92 228.931 92C233.09 92 236.35 89.5164 237.181 85.9936H233.022C232.423 87.5371 230.96 88.4099 228.997 88.4099C226.435 88.4099 224.506 86.799 224.074 83.98H237.28V82.4365H237.281ZM224.307 81.0937C224.94 78.6774 226.736 77.5036 228.798 77.5036C231.06 77.5036 232.79 78.8121 233.189 81.0937H224.307Z" fill="black"/>
<rect x="0.5" y="0.5" width="335" height="159" rx="13.5" stroke="white" stroke-opacity="0.25"/>
</svg>
