<svg width="336" height="160" viewBox="0 0 336 160" fill="none" xmlns="http://www.w3.org/2000/svg">
<path d="M146.373 78.8329H134.411V69.6217H132.078V90.3768H134.411V81.046H146.373V90.3768H148.706V69.6217H146.373V78.8329Z" fill="black"/>
<path d="M158.93 74.8258C157.793 74.8258 156.776 74.9454 155.939 75.1847C155.042 75.4239 154.205 75.723 153.367 76.1417L154.025 77.9959C154.743 77.637 155.461 77.3978 156.178 77.2183C156.896 77.0389 157.734 76.9193 158.631 76.9193C160.066 76.9193 161.203 77.2781 161.98 77.9959C162.758 78.7137 163.177 79.7305 163.177 81.1062V81.5847C162.459 81.4052 161.801 81.2258 161.083 81.1062C160.365 80.9866 159.528 80.9267 158.511 80.9267C157.554 80.9267 156.657 81.0464 155.879 81.2258C155.102 81.4651 154.384 81.7641 153.786 82.1828C153.188 82.6015 152.769 83.1398 152.41 83.738C152.111 84.3361 151.932 85.1137 151.932 85.8912V85.951C151.932 86.7286 152.111 87.4464 152.41 88.0445C152.709 88.6426 153.188 89.1211 153.726 89.5398C154.264 89.9585 154.862 90.2576 155.58 90.437C156.298 90.6165 156.956 90.7361 157.674 90.7361C158.99 90.7361 160.126 90.4968 161.023 89.9585C161.92 89.4202 162.638 88.8221 163.177 88.1043V90.3772H165.449V80.9866C165.449 79.0725 164.911 77.5174 163.834 76.5006C162.758 75.3641 161.143 74.8258 158.93 74.8258ZM163.296 84.7548C163.296 85.3529 163.177 85.951 162.877 86.4295C162.638 86.9081 162.219 87.3866 161.801 87.7454C161.322 88.1043 160.784 88.4034 160.186 88.5828C159.588 88.7623 158.93 88.8819 158.212 88.8819C157.674 88.8819 157.195 88.8221 156.776 88.7024C156.298 88.5828 155.879 88.3436 155.52 88.1043C155.162 87.8651 154.862 87.5062 154.683 87.1473C154.504 86.7884 154.384 86.3099 154.384 85.8912V85.8314C154.384 84.9342 154.803 84.1567 155.58 83.6183C156.358 83.08 157.434 82.7809 158.87 82.7809C159.827 82.7809 160.664 82.8408 161.382 82.9604C162.1 83.08 162.758 83.2595 163.356 83.3791V84.7548H163.296Z" fill="black"/>
<path d="M178.971 88.0451C178.194 88.4638 177.356 88.703 176.339 88.703C175.502 88.703 174.784 88.5236 174.126 88.2245C173.468 87.9255 172.87 87.5068 172.332 86.9685C171.853 86.4301 171.435 85.7722 171.136 85.0544C170.837 84.3367 170.717 83.5591 170.717 82.7217V82.6619C170.717 81.8245 170.837 81.047 171.136 80.3292C171.435 79.6115 171.794 78.9535 172.272 78.4152C172.751 77.8769 173.349 77.4582 174.007 77.1591C174.665 76.8601 175.382 76.6806 176.16 76.6806C177.237 76.6806 178.074 76.9199 178.792 77.3386C179.51 77.8171 180.167 78.3554 180.766 78.9535L182.261 77.3386C181.902 76.9797 181.543 76.6208 181.124 76.2619C180.706 75.903 180.227 75.604 179.749 75.3647C179.27 75.1255 178.732 74.946 178.134 74.7666C177.536 74.647 176.878 74.5872 176.16 74.5872C175.024 74.5872 174.007 74.8264 173.05 75.2451C172.093 75.6638 171.255 76.2619 170.538 76.9797C169.82 77.6974 169.281 78.5348 168.863 79.5516C168.444 80.5087 168.265 81.5255 168.265 82.6619V82.7217C168.265 83.7984 168.444 84.8152 168.863 85.7722C169.281 86.7292 169.82 87.5666 170.538 88.2844C171.255 89.0021 172.093 89.6002 173.05 90.0189C174.007 90.4376 175.024 90.6769 176.16 90.6769C177.595 90.6769 178.792 90.3778 179.809 89.8395C180.766 89.3012 181.663 88.5834 182.44 87.6862L181.005 86.3105C180.407 87.0283 179.689 87.6264 178.971 88.0451Z" fill="black"/>
<path d="M198.587 75.005H195.716L187.461 83.6779V68.7246H185.188V90.3769H187.461V86.3695L190.572 83.1994L196.074 90.3769H198.826L192.127 81.6442L198.587 75.005Z" fill="black"/>
<path d="M223.113 69.6217L214.919 88.7021L206.784 69.6217H205.109L214.201 90.4965H215.577L224.728 69.6217H223.113Z" fill="black"/>
<path d="M242.252 86.1306C241.175 87.2072 240.098 87.9848 239.022 88.5231C237.885 89.0614 236.629 89.3605 235.074 89.3605C233.818 89.3605 232.681 89.1212 231.605 88.6427C230.528 88.1642 229.631 87.5063 228.853 86.6689C228.076 85.8315 227.478 84.8147 226.999 83.6783C226.521 82.5418 226.341 81.3455 226.341 80.0297V79.9698C226.341 78.654 226.581 77.4577 226.999 76.3212C227.418 75.1848 228.076 74.2278 228.853 73.3904C229.631 72.553 230.588 71.8951 231.605 71.4166C232.681 70.9381 233.818 70.6988 235.074 70.6988C235.852 70.6988 236.569 70.7586 237.227 70.9381C237.885 71.1175 238.483 71.297 239.081 71.596C239.62 71.8353 240.158 72.1941 240.696 72.553C241.175 72.9119 241.653 73.3306 242.132 73.7493L243.209 72.6128C242.67 72.1343 242.132 71.6558 241.534 71.2371C240.995 70.8184 240.338 70.4596 239.739 70.1605C239.081 69.8614 238.424 69.6222 237.646 69.5026C236.868 69.3231 236.031 69.2633 235.134 69.2633C233.638 69.2633 232.263 69.5624 231.007 70.1007C229.751 70.639 228.674 71.4166 227.717 72.4334C226.82 73.3904 226.102 74.5269 225.564 75.8427C225.025 77.1586 224.786 78.5343 224.786 79.9698V80.0297C224.786 81.525 225.025 82.9007 225.564 84.2166C226.102 85.5325 226.82 86.6689 227.717 87.6259C228.614 88.5829 229.751 89.3605 231.007 89.8988C232.263 90.4371 233.638 90.7362 235.134 90.7362C236.031 90.7362 236.868 90.6764 237.646 90.497C238.424 90.3175 239.141 90.0783 239.799 89.7792C240.457 89.4801 241.055 89.0614 241.653 88.6427C242.252 88.2241 242.79 87.6857 243.388 87.1474L242.252 86.1306Z" fill="black"/>
<path d="M112.815 67.7084L106.355 74.1682H99.8953L92 82.0636H99.4766V88.5234H105.936V96L113.832 88.1047V81.6449L120.232 75.2449L123.94 64L112.815 67.7084ZM95.4093 80.628L100.434 75.6037H104.92L99.8953 80.628H95.4093ZM121.727 66.2729L118.976 74.4673L106.355 87.0878H100.912V81.6449L113.533 69.0243L121.727 66.2729ZM107.372 92.5907V88.1047L112.396 83.0804V87.5664L107.372 92.5907Z" fill="black"/>
<path d="M93.1971 91.9927L98.042 87.1478C98.1616 87.0282 98.1616 86.8487 98.042 86.6693C97.9224 86.5497 97.7429 86.5497 97.5635 86.6693L92.7186 91.5142C92.599 91.6338 92.599 91.8132 92.7186 91.9927C92.8981 92.1123 93.0775 92.1123 93.1971 91.9927Z" fill="black"/>
<path d="M100.855 89.9589L96.0106 94.8038C95.891 94.9234 95.891 95.1028 96.0106 95.2823C96.1302 95.4019 96.3097 95.4019 96.4891 95.2823L101.334 90.4374C101.454 90.3178 101.454 90.1384 101.334 89.9589C101.155 89.7795 100.975 89.7795 100.855 89.9589Z" fill="black"/>
<path d="M98.4607 89.5395C98.3411 89.4199 98.1616 89.4199 97.9822 89.5395L92.7186 94.8031C92.599 94.9227 92.599 95.1022 92.7186 95.2816C92.8383 95.4012 93.0177 95.4012 93.1971 95.2816L98.4607 90.0181C98.5803 89.8386 98.5803 89.6592 98.4607 89.5395Z" fill="black"/>
<path d="M116.829 73.6685C117.53 72.9677 117.53 71.8316 116.829 71.1308C116.128 70.4301 114.992 70.4301 114.291 71.1308C113.591 71.8316 113.591 72.9677 114.291 73.6685C114.992 74.3692 116.128 74.3692 116.829 73.6685Z" fill="black"/>
<rect x="0.5" y="0.5" width="335" height="159" rx="13.5" stroke="white" stroke-opacity="0.25"/>
</svg>
