<svg width="336" height="160" viewBox="0 0 336 160" fill="none" xmlns="http://www.w3.org/2000/svg">
<path d="M208.046 68C201.328 68 195.873 73.3705 195.873 80C195.873 86.6296 201.328 92 208.046 92C214.764 92 220.22 86.6296 220.22 80C220.22 73.3705 214.764 68 208.046 68ZM115 68.9628V72.8516H124.093V87.1852H115V91.0741H137.12V87.1852H128.064V72.8516H137.12V68.9628H115ZM142.985 68.9628V91.0365H153.599C160.466 90.9624 165.179 86.1482 165.179 79.9631C165.179 73.8521 160.54 69.148 153.785 68.9628H142.985ZM170.004 68.9628V91.0741H192.347V87.1852H174.012V81.9625H188.302V78.0737H174.012V72.8516H192.347V68.9628H170.004ZM208.046 72.1854C212.426 72.1854 216.026 75.7036 216.026 80.0369C216.026 84.3702 212.426 87.8884 208.046 87.8884C203.667 87.8884 200.067 84.3702 200.067 80.0369C200.067 75.7036 203.63 72.1854 208.046 72.1854V72.1854ZM146.956 72.7779H153.673C158.016 72.889 160.874 75.9258 160.874 80.0369C160.837 84.185 157.979 87.185 153.599 87.259H146.956V72.7779Z" fill="black"/>
<rect x="0.5" y="0.5" width="335" height="159" rx="13.5" stroke="white" stroke-opacity="0.25"/>
</svg>
