<svg width="336" height="160" viewBox="0 0 336 160" fill="none" xmlns="http://www.w3.org/2000/svg">
<path d="M107.032 73L99.626 87H102.032L103.657 83.8437H113.251L114.876 87H117.282L109.876 73H107.032ZM104.72 81.875L108.47 74.8125L108.532 74.9375L112.188 81.875H104.72V81.875Z" fill="black"/>
<path d="M130.219 73V87H132.406V75.3125L132.531 75.4375L143.281 87H146.125V73H143.906V84.7187L143.781 84.5937L133 73H130.219Z" fill="black"/>
<path d="M165.75 77.3437H161.344V79.3125H165.75V87H167.969V79.3125H172.375V77.3437H167.969V74.9688H174.719V73H159V74.9688H165.75V77.3437Z" fill="black"/>
<path d="M189.812 81H198.094V79.0312H189.812V74.9688H202.281V73H187.625V87H202.281V85.0312H189.812V81Z" fill="black"/>
<path d="M254.093 73H251.218L243.812 87H246.218L247.843 83.8437H257.436L257.468 83.875L259.061 87H261.468L254.093 73ZM248.937 81.875L252.686 74.8125L252.749 74.9375L256.405 81.875H248.937V81.875Z" fill="black"/>
<path d="M85.4687 73H74V87H76.2187V81.5937H85.4687C87.8437 81.5937 89.7812 79.6562 89.7812 77.2812C89.75 74.9375 87.8437 73 85.4687 73ZM85.4687 79.625H76.2187V74.9688H85.4687C86.75 74.9688 87.7812 76 87.7812 77.2812C87.7812 78.5937 86.75 79.625 85.4687 79.625Z" fill="black"/>
<path d="M227.75 81.5312C229.812 81.1562 231.312 79.375 231.312 77.2812C231.312 74.9063 229.375 73 227 73H215.531V87H217.75V81.5937H225L225.031 81.625L228.844 87H231.406L227.687 81.5312H227.75ZM217.781 79.625V74.9688H227.031C228.312 74.9688 229.344 76 229.344 77.2812C229.344 78.5625 228.312 79.625 227.031 79.625H217.781Z" fill="black"/>
<rect x="0.5" y="0.5" width="335" height="159" rx="13.5" stroke="white" stroke-opacity="0.25"/>
</svg>
