<svg width="336" height="160" viewBox="0 0 336 160" fill="none" xmlns="http://www.w3.org/2000/svg">
<path d="M103.526 72.9029C104.223 72.9029 104.942 72.9029 105.639 72.9029C105.639 73.3204 105.639 73.5987 105.639 73.9003C103.085 73.9003 100.554 73.9003 98 73.9003C98 73.6219 98 73.2044 98 72.9029C98.6966 72.9029 99.4163 72.9029 100.113 72.9029C100.113 72.6246 100.113 72.4854 100.113 72.3462C100.113 68.1016 100.113 64.0193 100.113 59.7747C100.113 59.3572 99.9736 59.218 99.5556 59.218C98.9984 59.218 98.5572 59.218 98 59.218C98 58.8005 98 58.5222 98 58.0815C98.1393 58.0815 98.2786 58.0815 98.4179 58.0815C100.972 58.0815 103.503 58.0815 106.196 58.0815C107.194 58.0815 108.17 58.2207 109.029 58.499C110.863 59.1948 112.001 60.8881 111.861 62.8828C111.722 64.8543 110.445 66.2692 108.471 66.6867C107.055 66.9651 105.639 66.9651 104.385 66.9651C103.688 66.9651 103.387 67.1042 103.387 67.6609C103.387 69.215 103.387 70.6298 103.387 72.1839C103.526 72.3462 103.526 72.6246 103.526 72.9029ZM103.387 59.0789C103.387 61.4679 103.387 63.741 103.387 65.8517C104.385 65.8517 105.36 65.9909 106.359 65.8517C107.636 65.7125 108.054 65.1559 108.193 63.8802C108.193 62.8828 108.193 62.0478 108.193 61.0504C108.054 60.053 107.496 59.4964 106.498 59.3572C105.5 59.218 104.524 59.218 103.387 59.0789ZM129.113 86.7269C129.391 86.4486 129.809 86.0311 130.39 85.5904C130.529 85.4512 130.808 85.3121 130.947 85.4512C131.086 85.4512 131.225 85.8687 131.225 86.0079C131.225 87.7011 131.225 89.3943 131.225 91.0875C131.225 91.3659 131.225 91.6442 130.668 91.6442C130.25 91.6442 129.972 91.6442 129.809 91.0875C129.67 90.3917 129.531 89.5335 129.113 88.8377C128.416 87.2836 127.278 86.2862 125.444 86.4486C123.61 86.4486 122.054 87.1444 121.056 89C120.777 89.4175 120.638 89.9974 120.499 90.5541C120.22 92.8039 120.081 95.077 120.638 97.3269C121.195 99.716 123.331 101.131 125.862 100.853C127.975 100.574 129.67 98.881 129.809 96.4687C129.809 96.0512 130.088 95.912 130.506 95.912C130.924 95.912 130.924 96.1904 130.924 96.6079C130.784 98.9969 128.95 101.131 126.535 101.827C123.981 102.383 120.034 101.688 118.061 98.4403C116.784 96.3295 116.505 94.0565 117.062 91.6674C118.061 86.5878 123.145 84.8946 126.396 85.7296C127.418 85.8687 128.254 86.3094 129.113 86.7269ZM184.349 58.499C184.349 58.7773 184.349 59.0557 184.349 59.4964C183.792 59.4964 183.351 59.4964 182.793 59.4964C182.375 59.4964 182.236 59.6355 182.236 60.053C182.236 61.6071 182.236 63.3003 182.236 64.8543C182.236 65.1327 182.236 65.411 182.654 65.411C184.349 65.411 186.044 65.411 187.739 65.411C187.739 63.4395 187.739 61.6071 187.739 59.4732C187.042 59.4732 186.323 59.4732 185.626 59.4732C185.626 59.0557 185.626 58.7773 185.626 58.4758C188.018 58.4758 190.572 58.4758 192.963 58.4758C192.963 58.7541 192.963 59.0325 192.963 59.4732C192.406 59.4732 191.965 59.4732 191.407 59.4732C190.989 59.4732 190.85 59.6123 190.85 60.0299C190.85 64.1121 190.85 68.3567 190.85 72.4622C190.85 72.8797 190.989 73.0189 191.407 72.8797C191.825 72.8797 192.267 72.8797 192.545 72.8797C192.963 72.8797 192.963 73.158 192.963 73.4364C192.963 73.8539 192.824 73.8539 192.545 73.8539C190.293 73.8539 188.018 73.8539 185.765 73.8539H185.626C185.347 72.8565 185.487 72.8565 186.323 72.8565C186.601 72.8565 187.019 72.8565 187.321 72.8565H187.46C187.46 72.7173 187.46 72.5782 187.46 72.439C187.46 70.6066 187.46 68.9134 187.46 67.081C187.46 66.6635 187.321 66.3852 186.764 66.5244C185.347 66.5244 183.931 66.5244 182.375 66.5244C181.958 66.5244 181.818 66.6635 181.818 67.081C181.818 68.9134 181.818 70.6066 181.818 72.439C181.818 72.8565 181.958 72.9957 182.375 72.9957C182.654 72.9957 182.933 72.9957 183.072 72.9957C183.931 72.9957 183.931 72.9957 183.931 73.9931C181.54 73.9931 178.986 73.9931 176.594 73.9931C176.594 73.7147 176.594 73.4364 176.594 72.9957C177.012 72.9957 177.593 72.9957 178.15 72.9957C178.568 72.9957 178.707 72.8565 178.707 72.439C178.707 68.3567 178.707 64.2513 178.707 60.0067C178.707 59.5892 178.568 59.45 178.15 59.45C177.732 59.45 177.151 59.45 176.594 59.45C176.594 59.1716 176.594 58.8933 176.594 58.4526C179.404 58.499 181.795 58.499 184.349 58.499ZM114.694 66.1301C114.833 63.5786 115.391 61.4679 117.387 59.6355C120.359 56.945 127.139 57.2465 128.834 63.022C129.531 65.411 129.531 67.8233 128.416 70.0732C127.139 72.9029 124.167 74.457 120.917 74.0163C117.805 73.5987 115.553 71.4648 114.973 68.3799C114.833 67.6841 114.694 66.9651 114.694 66.1301ZM118.223 65.9909C118.223 66.8491 118.223 67.6841 118.362 68.5423C118.502 70.0963 118.92 71.3721 120.057 72.4854C121.195 73.6219 123.029 73.6219 124.005 72.4854C124.562 71.7896 125.142 70.9314 125.421 70.0963C125.978 68.1248 125.978 66.1533 125.699 64.1585C125.56 63.1611 125.421 62.187 125.003 61.3288C124.446 60.053 123.447 59.218 121.892 59.218C120.475 59.218 119.5 60.0762 118.92 61.3288C118.084 62.6045 118.223 64.2977 118.223 65.9909ZM221.08 59.4964C221.08 59.0789 221.08 58.9397 221.08 58.499C221.359 58.499 221.638 58.499 222.079 58.499C223.217 58.499 224.47 58.499 225.608 58.499C226.165 58.499 226.606 58.6382 226.885 59.1948C229.137 62.3029 231.413 65.411 233.665 68.5191C233.665 68.3799 233.665 68.5191 233.943 68.6583C233.943 68.3799 234.083 68.2408 234.083 68.1016C234.083 65.5502 234.083 62.8828 234.083 60.3314C234.083 59.7747 233.943 59.4732 233.386 59.4732C232.968 59.4732 232.55 59.4732 231.97 59.334C231.97 59.0557 231.97 58.7773 231.97 58.3366C233.804 58.3366 235.499 58.3366 237.333 58.3366C237.333 58.615 237.333 58.8933 237.333 59.334C236.776 59.334 236.497 59.4732 236.056 59.4732C235.499 59.4732 235.197 59.7515 235.197 60.4706C235.197 64.7152 235.197 68.9366 235.197 73.1812C235.197 73.4596 235.058 73.8771 234.779 73.8771C234.501 73.8771 234.222 73.7379 233.92 73.5987C233.781 73.5987 233.781 73.4596 233.781 73.3204C231.227 69.7948 228.696 66.2692 226.003 62.7436C225.585 62.0478 225.004 61.4679 224.447 60.6329C224.447 60.9113 224.447 61.1896 224.447 61.3288C224.447 64.8543 224.447 68.3799 224.447 71.9055C224.447 72.6014 224.586 72.9029 225.283 72.9029C225.422 72.9029 225.562 72.9029 225.701 72.9029C226.537 72.9029 226.537 72.9029 226.537 73.9003C224.703 73.9003 223.008 73.9003 221.173 73.9003C220.895 73.0421 220.895 72.9029 221.87 72.9029C223.147 72.7637 223.147 72.7637 223.147 71.488C223.147 67.6841 223.147 63.857 223.147 60.1922C223.147 59.6355 223.008 59.334 222.45 59.4964C221.94 59.4964 221.498 59.4964 221.08 59.4964ZM156.371 100.551C157.067 100.551 157.509 100.551 158.066 100.551C158.484 100.551 158.484 100.829 158.484 101.108C158.484 101.386 158.484 101.664 158.066 101.664C155.814 101.664 153.678 101.664 151.425 101.664C151.007 101.664 151.007 101.525 151.007 101.108C151.007 100.829 151.007 100.551 151.425 100.551C151.983 100.551 152.424 100.551 153.12 100.551C153.12 100.273 153.12 99.9943 153.12 99.8551C153.12 95.912 153.12 91.9457 153.12 88.0026C153.12 87.446 152.981 87.1444 152.424 87.1444C152.145 87.1444 151.867 87.1444 151.565 87.1444C151.147 87.1444 151.007 87.0053 151.007 86.5878C151.007 86.1703 151.147 86.0311 151.565 86.0311C154.258 86.0311 156.928 86.0311 159.621 86.0311C161.316 86.0311 163.011 86.5878 163.87 88.1418C165.426 90.6932 164.01 93.7781 161.038 94.358C159.761 94.6363 158.344 94.6363 157.091 94.6363C156.533 94.6363 156.394 94.7755 156.394 95.3322C156.371 97.1645 156.371 98.7186 156.371 100.551ZM156.232 90.3917C156.232 91.3891 156.232 92.2241 156.232 93.2214C156.232 93.4998 156.232 93.7781 156.65 93.7781C157.509 93.7781 158.344 93.7781 159.204 93.639C160.341 93.4998 160.899 92.9431 160.899 91.8066C160.899 90.8092 160.899 89.835 160.899 88.8377C160.759 87.7011 160.341 87.1444 159.204 87.0053C158.344 86.8661 157.648 87.0053 156.812 86.8661C156.394 86.8661 156.255 87.0053 156.255 87.4228C156.232 88.5593 156.232 89.5567 156.232 90.3917ZM181.098 87.2836C180.239 87.4228 179.264 87.4228 178.544 87.7011C177.848 87.8403 177.407 88.397 177.267 89.116C177.128 89.6727 176.989 90.3917 176.989 90.9484C176.85 91.8066 176.85 91.8066 175.851 91.6442C175.851 91.2267 175.851 90.9484 175.851 90.5077C175.99 89.232 176.13 87.9563 176.13 86.7037C176.13 86.4254 176.13 86.1471 176.548 86.1471C180.797 86.1471 184.883 86.1471 189.132 86.1471C189.132 86.1471 189.271 86.1471 189.411 86.2862C189.55 87.9795 189.689 89.8118 189.829 91.505C188.83 91.7834 188.83 91.7834 188.691 90.8092C188.552 90.3917 188.412 89.951 188.412 89.3943C188.134 88.1186 187.275 87.4228 186.021 87.4228C185.464 87.4228 185.022 87.4228 184.465 87.4228C184.465 91.8066 184.465 96.1672 184.465 100.551C185.464 100.551 186.439 100.551 187.437 100.551C187.437 100.968 187.437 101.247 187.437 101.548C184.326 101.548 181.354 101.548 178.243 101.548C178.243 101.27 178.243 100.992 178.243 100.551C179.241 100.551 180.216 100.551 181.215 100.551C181.098 96.1904 181.098 91.8066 181.098 87.2836ZM210.214 73.9003C207.823 73.9003 205.547 73.9003 203.295 73.9003C203.017 72.9029 203.156 72.9029 203.992 72.9029C204.27 72.9029 204.549 72.9029 204.99 72.9029C204.572 71.9055 204.294 70.9314 203.992 70.0732C203.992 69.934 203.713 69.934 203.574 69.934C202.158 69.934 200.741 69.934 199.325 69.934C199.186 69.934 198.907 70.0732 198.907 70.2123C198.628 71.0705 198.35 71.9055 198.048 72.7637C198.466 72.7637 198.744 72.9029 199.046 72.9029C199.905 72.9029 199.905 73.1812 199.743 73.9003C198.048 73.9003 196.492 73.9003 194.797 73.9003C194.658 72.9029 194.658 72.9029 195.494 72.9029C196.353 72.9029 196.771 72.6246 197.049 71.7664C198.466 67.5217 200.021 63.3003 201.577 58.9165C201.716 58.499 201.856 58.0583 202.436 58.0583C202.993 58.0583 203.295 58.3366 203.435 58.9165C204.572 62.3029 205.826 65.6894 206.964 69.0758C207.382 70.2123 207.823 71.3257 208.101 72.4622C208.241 72.8797 208.519 73.0189 208.96 73.0189C209.1 73.0189 209.239 73.0189 209.378 73.0189C210.354 72.9029 210.354 72.9029 210.214 73.9003ZM203.713 68.6583C203.017 66.6867 202.297 64.8543 201.74 62.8596H201.6C200.904 64.692 200.323 66.6635 199.627 68.4959C200.881 68.6583 202.158 68.6583 203.713 68.6583ZM142.254 100.551C142.951 100.551 143.531 100.551 144.088 100.551C143.67 99.5536 143.392 98.5794 143.09 97.7212C143.09 97.5821 142.811 97.4429 142.672 97.4429C141.256 97.4429 139.839 97.4429 138.423 97.4429C138.284 97.4429 138.005 97.5821 137.866 97.7212C137.587 98.5794 137.309 99.2753 137.007 100.273C137.564 100.412 138.145 100.412 138.702 100.551C138.702 100.829 138.702 101.108 138.702 101.548C137.007 101.548 135.451 101.548 133.756 101.548C133.478 100.551 133.478 100.551 134.453 100.551C135.591 100.551 135.591 100.551 136.008 99.4144C137.564 95.1698 138.98 90.9484 140.536 86.5646C140.675 86.1471 140.815 85.7064 141.534 85.7064C142.231 85.7064 142.393 86.1239 142.533 86.5646C144.088 90.9484 145.644 95.4481 147.2 99.8319C147.339 100.389 147.618 100.528 148.198 100.528C148.477 100.528 148.616 100.528 148.895 100.528C149.313 100.528 149.313 100.806 149.313 101.084C149.313 101.363 149.173 101.641 148.895 101.641C146.921 101.641 144.808 101.641 142.811 101.641C141.952 101.548 142.393 100.992 142.254 100.551ZM138.423 96.3295C139.839 96.3295 141.256 96.3295 142.672 96.3295C141.976 94.358 141.256 92.5256 140.699 90.5309H140.559C139.839 92.5256 139.143 94.358 138.423 96.3295ZM198.048 101.548C198.048 101.27 198.048 100.992 198.048 100.551C198.605 100.551 199.186 100.551 199.882 100.551C199.464 99.5536 199.186 98.7186 198.884 97.7212C198.884 97.5821 198.605 97.4429 198.326 97.4429C196.91 97.4429 195.633 97.4429 194.24 97.4429C194.101 97.4429 193.822 97.5821 193.683 97.8604C193.404 98.5562 193.126 99.4144 192.824 100.412C193.381 100.551 193.961 100.551 194.519 100.69C194.519 100.968 194.519 101.247 194.519 101.688C192.824 101.688 191.129 101.688 189.573 101.688C189.295 100.829 189.295 100.69 190.27 100.69C191.407 100.69 191.407 100.69 191.825 99.5536C193.381 95.309 194.797 91.0875 196.353 86.8429C196.492 86.4254 196.632 85.9847 197.351 85.9847C198.048 85.9847 198.21 86.4022 198.35 86.8429C199.905 91.2267 201.461 95.7265 203.017 100.11C203.156 100.528 203.435 100.806 203.876 100.667C204.015 100.667 204.294 100.667 204.433 100.667C204.851 100.667 205.129 100.667 205.129 101.224C205.129 101.78 204.851 101.78 204.433 101.78C202.459 101.78 200.486 101.78 198.628 101.78C198.489 101.548 198.35 101.548 198.048 101.548ZM196.515 90.67H196.376C195.68 92.5024 195.099 94.474 194.403 96.3063C195.819 96.3063 197.235 96.3063 198.652 96.3063C197.769 94.358 197.073 92.5256 196.515 90.67ZM152.122 66.1301C153.399 63.8802 154.513 61.8854 155.79 59.6355C155.233 59.4964 154.792 59.4964 154.235 59.3572C154.235 59.0789 154.235 58.8005 154.235 58.3598C155.93 58.3598 157.485 58.3598 159.18 58.3598C159.18 58.6382 159.18 58.9165 159.18 59.218L159.041 59.3572C157.625 59.218 156.928 59.9139 156.348 61.0504C155.349 63.1611 154.096 65.1327 152.958 67.1274C152.819 67.4058 152.679 67.6841 152.679 67.9856C152.679 69.4005 152.679 70.8154 152.679 72.2303C152.679 72.6478 152.819 72.7869 153.236 72.7869C153.515 72.7869 153.794 72.7869 153.933 72.7869C154.792 72.7869 154.792 72.7869 154.63 73.7843C152.238 73.7843 149.823 73.7843 147.432 73.7843C147.432 73.506 147.432 73.2276 147.432 72.7869C147.989 72.7869 148.57 72.7869 148.987 72.7869C149.266 72.7869 149.545 72.6478 149.545 72.3694C149.545 70.9545 149.545 69.4005 149.545 67.9856C149.545 67.7073 149.405 67.5681 149.266 67.2898C147.85 64.7384 146.433 62.3493 145.017 59.9603C144.739 59.6819 144.321 59.5428 144.019 59.5428C143.601 59.4036 143.16 59.5428 142.742 59.5428C142.742 59.2644 142.742 58.9861 142.742 58.5454C145.133 58.5454 147.409 58.5454 149.8 58.5454C149.8 58.8237 149.8 59.1021 149.8 59.5428C149.243 59.5428 148.802 59.5428 148.105 59.6819C149.591 61.7463 150.729 63.8802 152.122 66.1301ZM174.737 61.1896C174.737 62.0478 174.737 62.8828 174.737 63.5786C174.737 63.9961 174.737 64.2745 174.179 64.2745C173.761 64.2745 173.483 64.1353 173.483 63.7178C173.344 62.3029 172.786 60.8881 171.509 60.053C169.396 58.3598 165.867 59.4964 164.869 62.1638C164.59 63.3003 164.451 64.5528 164.451 65.6894C164.451 67.1042 164.59 68.6583 165.008 70.0732C165.565 72.1839 167.701 73.3204 169.954 73.1812C172.067 72.9029 173.622 71.2097 173.761 69.099C173.761 68.6815 173.901 68.4031 174.458 68.4031C175.015 68.4031 174.876 68.8206 174.876 69.099C174.737 71.3489 173.042 73.3436 170.627 74.0394C167.376 74.8977 163.569 73.3436 161.874 70.3747C160.179 67.2666 160.179 61.4911 164.846 59.0789C167.237 57.8032 169.93 57.5248 172.345 59.218C172.484 59.3572 172.763 59.218 172.902 59.218C173.181 58.9397 173.46 58.6614 173.901 58.3598C174.04 58.3598 174.319 58.0815 174.458 58.2207C174.597 58.2207 174.737 58.6382 174.737 58.7773C174.737 59.6355 174.737 60.3314 174.737 61.1896ZM218.689 95.4713C218.41 97.4429 218.271 99.2753 217.992 101.27C217.992 101.409 217.575 101.548 217.296 101.548C214.463 101.548 211.654 101.548 208.821 101.548C208.403 101.548 207.962 101.548 207.544 101.548C206.685 101.548 206.685 101.548 206.848 100.551C207.544 100.551 208.125 100.551 208.821 100.551C208.821 100.273 208.821 99.9943 208.821 99.8551C208.821 95.912 208.821 91.8066 208.821 87.8635C208.821 87.3068 208.682 87.0053 208.125 87.1676C207.985 87.1676 207.707 87.1676 207.567 87.1676C206.569 87.1676 206.569 87.1676 206.871 86.1703C209.425 86.1703 212.095 86.1703 214.649 86.1703C214.928 87.1676 214.788 87.1676 213.952 87.1676C213.395 87.1676 212.815 87.1676 212.118 87.1676C212.118 91.6906 212.118 96.0512 212.118 100.435C214.672 100.992 216.646 99.8783 217.203 97.4661C217.342 97.0486 217.342 96.6079 217.482 96.1904C217.691 95.3322 217.691 95.193 218.689 95.4713ZM143.229 67.8233C142.951 69.7948 142.811 71.9055 142.533 73.9003C138.725 73.9003 135.033 73.9003 131.365 73.9003C131.365 73.6219 131.365 73.3436 131.365 72.9029C131.922 72.9029 132.363 72.9029 132.92 72.9029C133.338 72.9029 133.478 72.7637 133.478 72.3462C133.478 68.1016 133.478 63.8802 133.478 59.7747C133.478 59.6355 133.478 59.6355 133.478 59.4964C132.781 59.4964 132.201 59.4964 131.504 59.4964C131.504 59.0789 131.504 58.8005 131.504 58.499C134.197 58.499 136.868 58.499 139.561 58.499C139.561 58.7773 139.561 59.0557 139.561 59.4964C138.702 59.4964 137.866 59.4964 136.868 59.4964C136.868 59.7747 136.868 60.053 136.868 60.1922C136.868 64.1353 136.868 68.2408 136.868 72.1839C136.868 72.7405 137.007 72.8797 137.564 72.8797C140.397 72.8797 141.65 71.7432 142.231 68.9366C142.231 68.7974 142.37 68.6583 142.37 68.5191C142.092 67.6841 142.533 67.6841 143.229 67.8233ZM166.401 87.1444C166.401 86.7269 166.401 86.4486 166.401 86.1471C168.955 86.1471 171.486 86.1471 174.04 86.1471C174.04 86.4254 174.04 86.7037 174.04 87.1444C173.483 87.1444 172.902 87.1444 172.345 87.1444C172.067 87.1444 171.788 87.2836 171.788 87.5619C171.788 91.8066 171.788 96.028 171.788 100.273C171.788 100.412 171.788 100.412 171.927 100.551C172.624 100.551 173.344 100.551 174.04 100.551C174.04 100.968 174.04 101.247 174.04 101.548C171.486 101.548 168.955 101.548 166.401 101.548C166.401 101.27 166.401 100.992 166.401 100.551C166.959 100.551 167.539 100.551 168.096 100.551C168.514 100.551 168.514 100.412 168.514 100.133C168.514 96.0512 168.514 91.8066 168.514 87.7011C168.514 87.2836 168.375 87.1444 167.957 87.1444C167.539 87.1444 166.982 87.1444 166.401 87.1444ZM211.909 59.4964C211.909 59.0789 211.909 58.8005 211.909 58.499C212.188 58.499 212.466 58.499 212.606 58.499C214.579 58.499 216.692 58.499 218.689 58.499C219.525 58.3598 219.525 58.3598 219.525 59.4964C219.246 59.4964 218.828 59.4964 218.387 59.4964C218.109 59.4964 217.691 59.4964 217.249 59.4964C217.249 59.7747 217.249 60.053 217.249 60.1922C217.249 64.1353 217.249 68.1016 217.249 72.1839C217.249 72.8797 217.389 73.0421 218.109 72.8797C218.248 72.8797 218.526 72.8797 218.666 72.8797C219.502 72.8797 219.502 72.8797 219.502 73.8771C216.948 73.8771 214.417 73.8771 211.863 73.8771C211.723 72.8797 211.723 72.8797 212.722 72.8797C214.138 72.8797 214.138 72.8797 214.138 71.4648C214.138 67.6609 214.138 63.8338 214.138 60.169C214.138 59.6123 213.999 59.3108 213.442 59.4732C212.884 59.4964 212.327 59.4964 211.909 59.4964Z" fill="black"/>
<rect x="0.5" y="0.5" width="335" height="159" rx="13.5" stroke="white" stroke-opacity="0.25"/>
</svg>
