<svg width="336" height="160" viewBox="0 0 336 160" fill="none" xmlns="http://www.w3.org/2000/svg">
<path d="M145.586 89.798L143.641 86.4394C144.55 84.697 144.55 82.6768 144.55 80C144.55 76.6414 144.55 74.1919 142.606 72.1465C141.268 70.7071 139.55 70 137.303 70C135.056 70 133.313 70.8081 132 72.1465C130.056 74.0909 130.056 76.5404 130.056 80C130.056 83.3586 129.954 85.8081 132 87.8535C133.439 89.2929 135.056 90 137.303 90C137.909 90 138.414 89.899 138.944 89.798H145.586ZM134.752 85.505C134.045 84.697 133.843 83.7626 133.843 80C133.843 76.2374 134.045 75.303 134.752 74.495C135.258 73.8889 136.192 73.4849 137.202 73.4849C138.212 73.4849 139.146 73.8889 139.651 74.495C140.359 75.303 140.561 76.2374 140.561 80C140.561 83.7626 140.359 84.697 139.651 85.505C139.146 86.1111 138.212 86.5151 137.202 86.5151C136.192 86.5151 135.283 86.1111 134.752 85.505Z" fill="black"/>
<path d="M190.359 70.2012H194.122V89.7971H190.359V70.2012Z" fill="black"/>
<path d="M99.1465 90.0006C96.1919 90.0006 93.9444 89.3945 92 87.45L94.4495 85.0006C95.6616 86.2127 97.404 86.642 99.1465 86.642C101.394 86.642 102.606 85.8339 102.606 84.1925C102.606 83.4854 102.404 82.9804 102 82.5511C101.596 82.147 101.192 82.046 100.258 81.844L97.9091 81.541C96.2677 81.3389 94.9545 80.7329 94.1465 79.8995C93.2374 78.9905 92.7071 77.6521 92.7071 76.0107C92.7071 72.5511 95.2576 70.1016 99.5505 70.1016C102.202 70.1016 104.247 70.7076 105.889 72.349L103.439 74.6975C102.227 73.4854 100.687 73.3591 99.4495 73.3591C97.404 73.3591 96.3939 74.4703 96.3939 75.8086C96.3939 76.3137 96.596 76.8187 97 77.248C97.404 77.6521 98.0101 77.8541 98.8434 78.0561L101.192 78.3591C103.035 78.5612 104.146 79.0662 104.955 79.8995C105.965 80.9096 106.495 82.349 106.495 84.0915C106.495 87.8541 103.237 90.0006 99.1465 90.0006Z" fill="black"/>
<path d="M111.999 89.7971V70.2012H124.954V73.5598H115.863V78.1557H123.615V81.6406H115.863V86.4385H124.954V89.7971H111.999Z" fill="black"/>
<path d="M157.504 89.9991C153.514 89.9991 150.257 87.2466 150.257 83.0547V70.2012H154.146V82.9537C154.146 85.2012 155.484 86.5143 157.504 86.5143C159.525 86.5143 160.863 85.1759 160.863 82.9537V70.2012H164.626V83.0547C164.651 87.2466 161.494 89.9991 157.504 89.9991Z" fill="black"/>
<path d="M182.807 87.8535C181.469 89.2929 179.752 90 177.504 90C175.257 90 173.514 89.1919 172.201 87.8535C170.257 85.9091 170.257 83.4596 170.257 80C170.257 76.6414 170.156 74.1919 172.201 72.1465C173.539 70.7071 175.257 70 177.504 70C179.752 70 181.393 70.8081 182.807 72.1465C184.752 74.0909 184.752 76.5404 184.752 80C184.752 83.3586 184.752 85.8081 182.807 87.8535ZM179.954 74.495C179.449 73.8889 178.514 73.4849 177.504 73.4849C176.494 73.4849 175.56 73.8889 175.055 74.495C174.348 75.303 174.146 76.2374 174.146 80C174.146 83.7626 174.348 84.697 175.055 85.505C175.56 86.1111 176.494 86.5151 177.504 86.5151C178.514 86.5151 179.449 86.1111 179.954 85.505C180.661 84.697 180.863 83.7626 180.863 80C180.888 76.2374 180.686 75.303 179.954 74.495Z" fill="black"/>
<path d="M212.203 89.7971L211.092 86.3375H204.147L202.935 89.7971H198.945L206.092 70.2012H209.046L216.193 89.7971H212.203V89.7971ZM207.607 75.9082L205.157 83.0547H210.056L207.607 75.9082Z" fill="black"/>
<path d="M238.642 70.2012H243.541V75.1002H238.642V70.2012Z" fill="black"/>
<path d="M226.394 85.6052V70.2012H223.944V88.0547L226.394 85.6052Z" fill="black"/>
<path d="M228.111 87.3477L225.661 89.7971H243.515V87.3477H228.111Z" fill="black"/>
<path d="M231.293 80.7062V70.2012H228.844V83.1557L231.293 80.7062Z" fill="black"/>
<path d="M233.01 82.4492L230.561 84.8987H243.515V82.4492H233.01Z" fill="black"/>
<path d="M236.192 75.8072V70.2012H233.742V78.2567L236.192 75.8072Z" fill="black"/>
<path d="M237.908 77.5508L235.459 80.0003H243.515V77.5508H237.908Z" fill="black"/>
<rect x="0.5" y="0.5" width="335" height="159" rx="13.5" stroke="white" stroke-opacity="0.25"/>
</svg>
