<svg width="336" height="160" viewBox="0 0 336 160" fill="none" xmlns="http://www.w3.org/2000/svg">
<path fill-rule="evenodd" clip-rule="evenodd" d="M137 44H198.159V104.196H137V44ZM154.904 86.8601V65.506H163.445V61.1197H142.073V65.506H150.576V86.8601H154.904ZM184.613 86.8601V91.1309H188.98V86.7831H184.728V82.5893H188.98V65.3905H184.728V61.1197H171.859V65.3905H167.607V82.5893H171.859V86.8601H184.613ZM171.935 65.506H184.613V82.5123H171.935V65.506Z" fill="black"/>
<path d="M143.487 110.566V113.824H142.41V116H140.218V113.824H139.141V110.566H138.064V107.281H140.244V110.54H141.321V113.798H142.385V107.281H144.564V110.566H143.487ZM146.717 116V107.281H152.14V108.389H148.897V110.54H151.063V111.647H148.897V114.892H152.14V116H146.717ZM157.524 116V113.824H156.435V111.647H155.384V116H154.281V107.281H156.46V109.458H157.537V111.634H158.601V107.281H159.704V116H157.524ZM165.101 108.389V116H162.921V108.389H160.755V107.281H167.267V108.389H165.101ZM173.754 114.905V116H169.408V114.905H168.331V107.281H170.511V114.892H172.651V107.281H174.831V114.905H173.754ZM181.304 116V112.742H180.227V111.634H181.304V108.389H179.164V116H176.984V107.281H182.407V108.376H183.484V111.647H182.407V112.716H183.484V116H181.304ZM185.637 116V107.281H191.06V108.389H187.817V110.54H189.983V111.647H187.817V114.892H191.06V116H185.637ZM197.547 114.905V116H194.277V114.905H193.201V113.798H194.303V114.892H196.444V112.742H194.277V111.647H193.201V108.376H194.277V107.281H197.547V108.376H198.623V109.484H197.521V108.389H195.38V110.54H197.547V111.634H198.623V114.905H197.547Z" fill="black"/>
<rect x="0.5" y="0.5" width="335" height="159" rx="13.5" stroke="white" stroke-opacity="0.25"/>
</svg>
