<svg width="336" height="160" viewBox="0 0 336 160" fill="none" xmlns="http://www.w3.org/2000/svg">
<path d="M112.891 89.3858H112.733L107.764 73.7472H104L111.107 93.5282H114.438L121.532 73.7472H117.939L112.891 89.3858Z" fill="black"/>
<path d="M141.268 80.0262C141.268 78.8596 141.085 77.8633 140.705 76.9981C140.337 76.1461 139.813 75.4513 139.131 74.9007C138.449 74.3633 137.662 73.9569 136.744 73.6816C135.826 73.4064 134.843 73.2753 133.781 73.2753C132.719 73.2753 131.735 73.4326 130.817 73.7341C129.899 74.0487 129.099 74.4813 128.418 75.045C127.736 75.6086 127.198 76.2903 126.791 77.0637C126.385 77.8371 126.188 78.7023 126.188 79.633H129.676C129.676 78.3614 130.043 77.4438 130.791 76.8802C131.525 76.3296 132.522 76.0412 133.755 76.0412C134.371 76.0412 134.935 76.1068 135.446 76.2247C135.958 76.3427 136.39 76.5524 136.744 76.8539C137.099 77.1554 137.387 77.5487 137.584 78.0599C137.78 78.5712 137.872 79.2004 137.872 79.9738V81.5599L131.434 82.163C129.467 82.3334 127.985 82.9888 127.001 84.0899C126.018 85.2041 125.52 86.5281 125.52 88.075C125.52 88.8615 125.664 89.6086 125.952 90.3297C126.241 91.0506 126.634 91.6667 127.159 92.1911C127.736 92.7809 128.431 93.2267 129.231 93.5412C130.03 93.8428 130.922 94 131.906 94C133.387 94 134.659 93.6592 135.722 92.9907C136.784 92.309 137.584 91.2736 138.134 89.8708H138.292L138.37 93.5282H144.285V90.5393H141.334V80.0262H141.268ZM137.859 85.1518C137.859 86.9345 137.4 88.3895 136.495 89.5169C135.59 90.6442 134.345 91.2079 132.758 91.2079C131.643 91.2079 130.778 90.9981 130.149 90.5787C129.519 90.1592 129.204 89.4908 129.204 88.5731V86.8297C129.204 86.266 129.296 85.8072 129.48 85.4794C129.663 85.1518 130.109 84.9551 130.83 84.9157L137.859 84.2603V85.1518Z" fill="black"/>
<path d="M150.09 93.5282H153.578V76.7622H159.597V73.7472H150.09V93.5282Z" fill="black"/>
<path d="M169.381 73.7472H165.893V93.5282H169.381V73.7472Z" fill="black"/>
<path d="M193.039 73.7472H189.55V76.9719C188.934 75.779 188.095 74.8745 187.046 74.2322C185.997 73.5899 184.725 73.2753 183.217 73.2753C181.905 73.2753 180.751 73.5506 179.768 74.088C178.784 74.6255 177.958 75.3727 177.316 76.2903C176.66 77.221 176.175 78.3221 175.86 79.5937C175.532 80.8653 175.375 82.2154 175.375 83.6443C175.375 85.0992 175.532 86.4495 175.86 87.6949C176.188 88.9401 176.673 90.0413 177.316 90.972C177.971 91.9027 178.784 92.6499 179.755 93.1873C180.738 93.7248 181.892 94 183.217 94C184.725 94 185.997 93.6855 187.046 93.0432C188.095 92.4009 188.934 91.4963 189.55 90.3035V93.5282H190.075H195.989V90.5393H193.039V73.7472ZM189.55 85.309C189.55 87.0132 189.078 88.4289 188.147 89.53C187.216 90.6442 185.866 91.1948 184.108 91.1948C182.627 91.1948 181.42 90.7754 180.476 89.9496C179.532 89.1236 179.06 88.0356 179.06 86.6985V80.5637C179.06 79.2266 179.532 78.1386 180.476 77.2996C181.42 76.4607 182.627 76.0543 184.108 76.0543C185.866 76.0543 187.216 76.618 188.147 77.7322C189.078 78.8465 189.55 80.2622 189.55 81.9664V85.309Z" fill="black"/>
<path d="M214.836 74.9139C214.272 74.3502 213.59 73.9307 212.817 73.6685C212.03 73.4064 211.164 73.2753 210.207 73.2753C208.699 73.2753 207.479 73.603 206.535 74.2715C205.591 74.9401 204.844 75.8446 204.293 77.0112V73.7472H200.805V93.5281H204.293V81.9664C204.293 81.1012 204.411 80.3146 204.66 79.5937C204.909 78.8727 205.25 78.2435 205.696 77.706C206.142 77.1817 206.653 76.7622 207.256 76.4869C207.846 76.1985 208.502 76.0543 209.223 76.0543C210.731 76.0543 211.754 76.4738 212.318 77.2996C212.869 78.1255 213.157 79.2659 213.157 80.721V93.5281H216.645V80.3408C216.645 79.0693 216.488 77.9813 216.173 77.0899C215.846 76.2116 215.4 75.4775 214.836 74.9139Z" fill="black"/>
<path d="M232.431 76.7231V73.7474H227.92V67.1406H224.432V73.7474H221.127V76.7231H224.432V93.5284H232.431V90.5397H227.92V76.7231H232.431Z" fill="black"/>
<path d="M167.641 66C166.329 66 165.254 67.0618 165.254 68.3858V68.412C165.254 69.7229 166.316 70.7978 167.641 70.7978C168.952 70.7978 170.027 69.736 170.027 68.412V68.3858C170.027 67.0749 168.965 66 167.641 66Z" fill="black"/>
<rect x="0.5" y="0.5" width="335" height="159" rx="13.5" stroke="white" stroke-opacity="0.25"/>
</svg>
