<svg width="336" height="160" viewBox="0 0 336 160" fill="none" xmlns="http://www.w3.org/2000/svg">
<path d="M85 63.2472H88.231L91.683 73.5735L95.3283 63.2472H97.5928L101.238 73.5735L104.69 63.2472H107.921L102.398 79.7803H100.133L96.4329 69.3166L92.76 79.7803H90.4955L85 63.2472ZM112.146 63.2472H115.35V79.7803H112.146V63.2472ZM120.735 63.2472H122.999L132.278 74.0129V63.2472H135.482V79.7803H133.217L123.938 69.0145V79.7803H120.735V63.2472V63.2472ZM143.601 71.651V79.7803H140.397V63.2472H143.601V69.8659L149.897 63.2472H154.122L146.804 70.7997L155.006 79.7803H150.891L143.601 71.651ZM158.983 63.2472H162.186V76.9515H169.201V79.7803H158.983V63.2472ZM176.491 66.0759V69.5089H181.6V72.3376H176.491V76.9515H183.506V79.7803H173.288V63.2472H183.257V66.0759H176.491V66.0759ZM187.096 63.2472H190.409L194.938 74.5347L199.495 63.2472H202.809L196.098 79.7803H193.834L187.096 63.2472ZM212.944 63C218.081 63 221.615 66.8174 221.615 71.5137C221.615 76.21 218.081 80.0275 212.944 80.0275C207.807 80.0275 204.273 76.21 204.273 71.5137C204.273 66.8174 207.835 63 212.944 63ZM212.944 77.1987C216.092 77.1987 218.412 74.6446 218.412 71.5412C218.412 68.4103 216.092 65.8837 212.944 65.8837C209.796 65.8837 207.476 68.4378 207.476 71.5412C207.504 74.6446 209.823 77.1987 212.944 77.1987ZM226.255 75.3586C227.194 76.4023 228.657 77.1712 230.176 77.1712C231.612 77.1712 232.606 76.2924 232.606 75.084C232.606 72.9693 229.513 72.6947 227.277 71.4039C225.979 70.6349 224.929 69.5089 224.929 67.6414C224.929 64.6753 227.663 63 230.425 63C232.109 63 233.683 63.4119 235.258 64.5654L233.601 66.9273C232.938 66.3231 231.806 65.8288 230.729 65.8288C229.513 65.8288 228.16 66.3506 228.16 67.6139C228.16 70.2779 235.837 69.454 235.837 75.0291C235.837 77.9677 233.214 80 230.204 80C227.967 80 225.896 79.0662 224.184 77.5283L226.255 75.3586ZM241.167 75.3586C242.106 76.4023 243.57 77.1712 245.089 77.1712C246.525 77.1712 247.519 76.2924 247.519 75.084C247.519 72.9693 244.426 72.6947 242.189 71.4039C240.891 70.6349 239.842 69.5089 239.842 67.6414C239.842 64.6753 242.576 63 245.337 63C247.022 63 248.596 63.4119 250.17 64.5654L248.513 66.9273C247.85 66.3231 246.718 65.8288 245.641 65.8288C244.426 65.8288 243.073 66.3506 243.073 67.6139C243.073 70.2779 250.75 69.454 250.75 75.0291C250.75 77.9677 248.126 80 245.116 80C242.879 80 240.808 79.0662 239.096 77.5283L241.167 75.3586Z" fill="black"/>
<path d="M140.977 92.7432C140.977 94.3635 142.219 95.572 143.821 95.572C144.898 95.572 145.699 95.0501 146.168 94.4185L147.273 95.4072C146.527 96.3409 145.312 97.0001 143.794 97.0001C141.198 97.0001 139.375 95.1325 139.375 92.7432C139.375 90.3813 141.17 88.4863 143.766 88.4863C145.009 88.4863 146.058 88.9532 146.804 89.6673L145.782 90.7658C145.285 90.2715 144.594 89.9144 143.766 89.9144C142.164 89.887 140.977 91.1503 140.977 92.7432ZM149.068 96.8627L152.631 88.5962H153.763L157.325 96.8627H155.641L154.867 95.0227H151.526L150.753 96.8627H149.068ZM152.133 93.622H154.26L153.211 91.1778L152.133 93.622ZM161.412 93.5122V96.8902H159.811V88.6236H162.931C164.008 88.6236 164.643 88.8708 165.085 89.3652C165.5 89.7771 165.748 90.4362 165.748 91.0679C165.748 91.727 165.5 92.3587 165.085 92.7707C164.643 93.2375 163.981 93.5122 162.931 93.5122H161.412V93.5122ZM162.876 92.0841C163.428 92.0841 163.705 91.9467 163.898 91.7545C164.064 91.5623 164.174 91.3425 164.174 91.0679C164.174 90.7933 164.091 90.5461 163.898 90.3539C163.705 90.1616 163.428 90.0243 162.876 90.0243H161.44V92.0841H162.876ZM168.841 88.5962H170.443V96.8627H168.841V88.5962ZM179.584 88.5962V90.0243H177.374V96.8902H175.8V90.0243H173.591V88.5962H179.584ZM180.854 96.8627L184.416 88.5962H185.549L189.111 96.8627H187.426L186.653 95.0227H183.312L182.538 96.8627H180.854ZM183.892 93.622H186.018L184.969 91.1778L183.892 93.622ZM191.237 88.5962H192.839V95.4621H196.346V96.8902H191.237V88.5962Z" fill="black"/>
<rect x="0.5" y="0.5" width="335" height="159" rx="13.5" stroke="white" stroke-opacity="0.25"/>
</svg>
